<?xml version="1.0" encoding="utf-8"?>
<!-- Generator: Adobe Illustrator 27.4.0, SVG Export Plug-In . SVG Version: 6.00 Build 0)  -->
<svg version="1.1" id="Layer_1" xmlns="http://www.w3.org/2000/svg" xmlns:xlink="http://www.w3.org/1999/xlink" x="0px" y="0px"
	 viewBox="0 0 1080 645.4" style="enable-background:new 0 0 1080 645.4;" xml:space="preserve">
<g>
	<path d="M758.98,485.35c-74.39,0-148.67,0-223.92,0c-3.3-25.29-14.7-45.53-35.72-61.53c60.42,0,120.84,0,183.59,0
		c0-6.85,0-12.03,0-17.2c0-96.13-0.02-192.27,0.02-288.4c0.01-24.33,4.26-28.64,28.11-28.66c41.07-0.04,82.15,0.24,123.21-0.19
		c10.98-0.11,18.69,3.69,25.49,12.16c38.71,48.2,77.97,95.96,116.41,144.37c4.64,5.85,7.78,14.64,7.85,22.1
		c0.6,65.89,0.44,131.79,0.29,197.68c-0.04,15.63-4.85,20.25-20.16,20.4c-15.8,0.16-31.62,0.53-47.37-0.35
		c-3.83-0.22-9.84-4.37-10.72-7.79c-10.08-38.95-37.15-62.57-72.79-62.46c-36.23,0.11-63.27,24.04-72.52,64.16
		C760.34,481.35,759.7,483.01,758.98,485.35z M820.6,319.77c25.71,0,51.45,0.51,77.13-0.42c5.36-0.19,14.88-5.41,15.1-8.79
		c1.4-21.56,0.95-43.26,0.52-64.89c-0.06-3.12-2.92-6.47-5.12-9.21c-23.47-29.16-46.77-58.48-70.94-87.05
		c-3.99-4.72-11.91-8.27-18.17-8.52c-24.77-0.96-49.61-0.11-74.42-0.53c-11.61-0.2-16.35,4.84-16.32,16.12
		c0.15,49.17,0.18,98.34,0.01,147.51c-0.04,11.49,4.92,16.12,16.44,15.91C770.07,319.47,795.33,319.77,820.6,319.77z"/>
	<path d="M522.12,490.97c-0.88,33.69-29.08,60.32-62.64,59.15c-33.77-1.18-59.97-29.2-58.87-62.96
		c1.1-33.99,28.75-60.03,62.69-59.04C497.17,429.11,523.01,456.72,522.12,490.97z M482.79,488.63
		c-0.23-11.37-10.9-21.54-22.12-21.11c-11.44,0.44-21.11,11.05-20.56,22.57c0.53,11.24,9.97,20.13,21.35,20.1
		C473.36,510.15,483.03,500.39,482.79,488.63z"/>
	<path d="M833.4,427.86c34.09-0.03,61.01,26.68,61.11,60.63c0.1,33.48-27.4,60.96-61.09,61.03c-33.69,0.08-61.01-27.27-60.93-60.99
		C772.57,454.39,799.17,427.89,833.4,427.86z M833.64,509.64c11.83-0.09,21.29-9.94,20.95-21.79c-0.31-10.9-10.09-20.78-20.8-21.01
		c-11.16-0.24-21.63,10.15-21.7,21.53C812.02,500.2,821.68,509.74,833.64,509.64z"/>
	<path d="M180.87,147.77c20.71,0,41.42-0.16,62.12,0.05c16.24,0.16,25.96,8.88,26.07,22.79c0.11,13.79-9.71,22.85-25.89,22.92
		c-41.87,0.19-83.73,0.19-125.6-0.02c-15.76-0.08-24.82-8.39-25.19-22.08c-0.39-14.49,8.64-23.37,25-23.62
		C138.55,147.49,159.71,147.74,180.87,147.77z"/>
	<path d="M422.9,422.93c-19.55,16.6-32.03,36-34.91,63.17c-21.18,0-42.17,0-63.15,0c-37.98,0-37.98,0-37.9-37.46
		c0.05-23.21,2.48-25.7,25.34-25.7C349.15,422.93,386.03,422.93,422.9,422.93z"/>
	<path d="M201.09,269.43c-14.41,0-28.82,0.37-43.22-0.1c-15.06-0.49-24.54-9.92-24.4-23.22c0.14-13.61,9.32-22.69,24.67-22.89
		c28.81-0.38,57.63-0.4,86.43,0c14.97,0.21,24.6,9.94,24.47,23.17c-0.13,13.24-9.72,22.5-24.75,22.94
		C229.91,269.76,215.5,269.43,201.09,269.43z"/>
	<path d="M219.16,295.22c9,0,18.03-0.44,27,0.1c13.39,0.82,22.38,9.84,22.86,22.04c0.5,12.81-8.3,23.34-22.23,23.98
		c-18.86,0.88-37.83,0.88-56.69,0.02c-14.15-0.64-22.3-10.59-21.89-24.07c0.38-12.63,8.8-20.98,22.6-22.06
		c4.92-0.38,9.9-0.13,14.85-0.15c4.5-0.02,9,0,13.51,0C219.16,295.13,219.16,295.18,219.16,295.22z"/>
</g>
</svg>
