<?xml version="1.0" encoding="utf-8"?>
<!-- Generator: Adobe Illustrator 27.4.0, SVG Export Plug-In . SVG Version: 6.00 Build 0)  -->
<svg version="1.1" id="Layer_1" xmlns="http://www.w3.org/2000/svg" xmlns:xlink="http://www.w3.org/1999/xlink" x="0px" y="0px"
	 viewBox="0 0 430.88 217.39" style="enable-background:new 0 0 430.88 217.39;" xml:space="preserve">
<style type="text/css">
	.st0{fill:#E6D3C9;}
	.st1{fill:#F4ECE6;}
	.st2{fill:#B9A9A0;}
	.st3{fill:url(#SVGID_1_);}
	.st4{fill:#A42928;}
	.st5{fill:#E87725;}
	.st6{fill:url(#SVGID_00000012462888731093220400000018381450559321507471_);}
	.st7{fill:#FFFFFF;}
	.st8{fill:url(#SVGID_00000011027165640334906770000010662662277614514581_);}
	.st9{fill:#FADD8D;}
</style>
<g>
	<g>
		<path class="st0" d="M217.03,148.59h-64.05c-16.22,0-29.36-13.15-29.36-29.36v-14.69c0-16.22,13.15-29.36,29.36-29.36h64.05
			c16.22,0,29.36,13.15,29.36,29.36v14.69C246.4,135.44,233.25,148.59,217.03,148.59z"/>
		<g>
			<path class="st0" d="M315.91,139.04h-99.9c-11.03,0-19.98-8.95-19.98-19.98v-10c0-11.03,8.95-19.98,19.98-19.98h99.9
				c11.03,0,19.98,8.95,19.98,19.98v10C335.89,130.09,326.95,139.04,315.91,139.04z"/>
			<path class="st1" d="M315.91,134.67h-99.9c-11.03,0-19.98-8.95-19.98-19.98v-10c0-11.03,8.95-19.98,19.98-19.98h99.9
				c11.03,0,19.98,8.95,19.98,19.98v10C335.89,125.72,326.95,134.67,315.91,134.67z"/>
			<path class="st2" d="M308.67,122.31h-85.69c-6.97,0-12.62-5.65-12.62-12.62l0,0c0-6.97,5.65-12.62,12.62-12.62h85.69
				c6.97,0,12.62,5.65,12.62,12.62l0,0C321.3,116.66,315.65,122.31,308.67,122.31z"/>
			<linearGradient id="SVGID_1_" gradientUnits="userSpaceOnUse" x1="235.4892" y1="127.6742" x2="235.4892" y2="89.4745">
				<stop  offset="0" style="stop-color:#BF2626"/>
				<stop  offset="1" style="stop-color:#E84647"/>
			</linearGradient>
			<path class="st3" d="M265.97,97.38V122c0,1.22-0.43,2.34-1.14,3.21c-0.93,1.13-2.34,1.85-3.91,1.85h-38.27
				c-0.86,0-1.71-0.06-2.54-0.18c-1.98-0.28-3.86-0.9-5.58-1.78c-2.04-1.05-3.86-2.49-5.34-4.22c-2.58-3-4.15-6.88-4.16-11.13
				c-0.02-4.82,1.93-9.18,5.09-12.33c1.88-1.88,4.18-3.33,6.76-4.19c1.74-0.58,3.59-0.9,5.52-0.9h38.53c0.16,0,0.31,0.01,0.46,0.02
				C263.95,92.58,265.97,94.75,265.97,97.38z"/>
			<path class="st4" d="M223.62,92.32l-9.11,32.77c-2.04-1.05-3.86-2.49-5.34-4.22l7.68-27.65c1.74-0.58,3.59-0.9,5.52-0.9H223.62z"
				/>
			<path class="st4" d="M236.21,92.32l-9.65,34.73h-3.92c-0.86,0-1.71-0.06-2.54-0.18l9.6-34.55H236.21z"/>
			<polygon class="st4" points="248.79,92.32 239.14,127.06 232.62,127.06 242.27,92.32 			"/>
			<path class="st4" d="M261.37,92.35l-9.64,34.71h-6.52l9.65-34.73h6.05C261.06,92.32,261.22,92.33,261.37,92.35z"/>
			<path class="st4" d="M265.97,97.63v23.45l-1.14,4.12c-0.93,1.13-2.34,1.85-3.91,1.85h-3.12L265.97,97.63z"/>
		</g>
	</g>
	<g>
		<path class="st5" d="M184.72,101.99c1.33,0.48,2.05,1.25,2.37,1.64c1.46,1.81,1.54,4.54,0.36,6.29c-0.27,0.4-0.57,0.69-0.77,0.86
			c-0.47-0.39-2-1.77-2.5-4.16C183.69,104.36,184.45,102.56,184.72,101.99z"/>
		<g>
			
				<linearGradient id="SVGID_00000065068423471197152280000000783854381664646313_" gradientUnits="userSpaceOnUse" x1="160.4498" y1="84.342" x2="160.4498" y2="140.3124">
				<stop  offset="0" style="stop-color:#FAC624"/>
				<stop  offset="1" style="stop-color:#FAA731"/>
			</linearGradient>
			<path style="fill:url(#SVGID_00000065068423471197152280000000783854381664646313_);" d="M171.01,139.79
				c-0.64,0-1.24-0.16-1.78-0.47l-10.71-6.12c-0.27-0.15-0.58-0.23-0.92-0.23c-0.36,0-0.73,0.09-1.08,0.26l-12.59,6.12
				c-0.6,0.29-1.22,0.44-1.84,0.44c-1.15,0-2.18-0.51-2.82-1.4c-0.59-0.82-0.78-1.86-0.54-2.92c-0.53-0.31-0.96-0.76-1.25-1.3
				c-0.45-0.85-0.52-1.87-0.19-2.88l4.07-12.56l-6.63-7.6c-0.7-0.8-0.97-1.86-0.77-2.95l-0.76-0.87c-0.85-0.98-1.07-2.35-0.58-3.67
				c0.57-1.54,1.97-2.68,3.57-2.91l13.31-1.89c0.76-0.11,1.47-0.58,1.91-1.26l7.63-11.8c0.84-1.3,2.22-2.08,3.7-2.08
				c1.54,0,2.8,0.87,3.27,2.27l0.94,2.75c0.26,0.31,0.46,0.68,0.6,1.08l2.95,8.67c0.23,0.2,0.52,0.32,0.85,0.37l12.69,1.88
				c1.15,0.17,2.03,0.78,2.54,1.71c0.41,0.76,0.52,1.68,0.32,2.56c0.78,0.46,1.34,1.21,1.55,2.14c0.33,1.46-0.24,3.03-1.49,4.09
				l-10.83,9.19c-0.62,0.53-0.98,1.27-0.97,1.99l0.24,12.97c0.02,1.12-0.43,2.2-1.26,3.05C173.28,139.3,172.14,139.79,171.01,139.79
				C171.01,139.79,171.01,139.79,171.01,139.79z"/>
			<path class="st7" d="M162.74,84.55c1.08,0,2.07,0.56,2.45,1.68l0.99,2.91c0.23,0.25,0.42,0.55,0.55,0.91l3.02,8.87
				c0.38,0.4,0.89,0.67,1.48,0.75l12.69,1.89l0.05,0.01c1.9,0.28,2.63,2.23,1.85,3.9c2.15,0.57,2.53,3.41,0.57,5.08l-10.83,9.19
				c-0.82,0.69-1.29,1.69-1.28,2.67l0.24,12.97c0.04,1.95-1.76,3.53-3.51,3.53c-0.46,0-0.93-0.11-1.35-0.35l-10.71-6.12
				c-0.4-0.23-0.87-0.35-1.35-0.35c-0.48,0-0.98,0.12-1.46,0.35l-12.59,6.12c-0.5,0.24-0.99,0.35-1.46,0.35
				c-1.76,0-3.07-1.58-2.43-3.53l0.13-0.4c-1.35-0.39-2.21-1.77-1.67-3.43l2.9-8.93l1.04-3.2l0.27-0.85
				c0.01-0.02,0.01-0.04,0.02-0.06l-6.95-7.97c-0.65-0.74-0.76-1.71-0.48-2.61l-1.06-1.21c-1.53-1.75-0.07-4.79,2.46-5.15
				l13.31-1.89c1-0.14,1.95-0.76,2.52-1.65l7.63-11.8C160.51,85.12,161.67,84.55,162.74,84.55 M162.74,82.81
				c-1.77,0-3.42,0.93-4.43,2.48l-7.63,11.8c-0.3,0.47-0.8,0.8-1.3,0.87l-13.32,1.89c-1.91,0.27-3.58,1.63-4.27,3.47
				c-0.6,1.63-0.33,3.33,0.74,4.55l0.5,0.58c-0.11,1.2,0.25,2.35,1.03,3.25l6.31,7.23l-1.03,3.16l-2.9,8.93
				c-0.4,1.23-0.31,2.5,0.25,3.56c0.27,0.51,0.63,0.94,1.07,1.29c-0.12,1.1,0.15,2.16,0.78,3.03c0.81,1.12,2.1,1.76,3.53,1.76
				c0.75,0,1.5-0.18,2.22-0.53l12.59-6.12c0.23-0.11,0.47-0.17,0.69-0.17c0.18,0,0.35,0.04,0.49,0.12l10.71,6.12
				c0.67,0.38,1.43,0.58,2.22,0.58c1.36,0,2.73-0.59,3.75-1.63c1-1.02,1.53-2.32,1.51-3.68l-0.24-12.97
				c-0.01-0.45,0.24-0.96,0.66-1.31l10.83-9.19c1.5-1.27,2.18-3.17,1.78-4.95c-0.22-0.96-0.73-1.78-1.45-2.36
				c0.09-0.9-0.08-1.79-0.5-2.57c-0.63-1.17-1.77-1.95-3.13-2.16l-12.74-1.89c-0.09-0.01-0.17-0.04-0.25-0.07l-2.86-8.39
				c-0.15-0.45-0.37-0.86-0.65-1.22l-0.89-2.6C166.25,83.94,164.64,82.81,162.74,82.81L162.74,82.81z"/>
		</g>
		<g>
			<path class="st5" d="M162.54,84.85c0.28-0.05,0.7-0.1,1.18,0c2.2,0.45,3.21,3.43,4.67,7.46c0.72,1.98,1.86,5.09,3.4,9.08
				c-1.13-0.45-5.3-2.29-7.76-7.02C161.81,90.13,162.32,86.14,162.54,84.85z"/>
			<path class="st5" d="M134.14,103.38c-0.4,0.66-0.58,1.27-0.67,1.74c-0.56,3.08,2.07,5.59,2.41,5.9c0.13-0.95,0.23-2.53-0.26-4.37
				C135.23,105.2,134.62,104.1,134.14,103.38z"/>
			<path class="st5" d="M167,90.34l4.02,11.8c0.3,0.89,1.06,1.51,2.02,1.65l12.74,1.89c2.42,0.36,2.94,3.4,0.89,5.15l-10.83,9.19
				c-0.82,0.69-1.29,1.69-1.28,2.67l0.24,12.97c0.05,2.47-2.83,4.35-4.87,3.18l-10.71-6.12c-0.81-0.46-1.86-0.46-2.81,0l-12.59,6.12
				c-2.39,1.16-4.69-0.72-3.89-3.18l4.21-12.97c0.32-0.98,0.15-1.98-0.46-2.67l-8.02-9.19c-1.52-1.75-0.07-4.79,2.46-5.15
				l13.31-1.89c1-0.14,1.95-0.76,2.52-1.65l7.63-11.8C163.04,88.09,166.24,88.09,167,90.34z"/>
			
				<linearGradient id="SVGID_00000057131213789901457750000017865740499142490300_" gradientUnits="userSpaceOnUse" x1="159.9515" y1="85.42" x2="159.9515" y2="135.8342">
				<stop  offset="0" style="stop-color:#FAC624"/>
				<stop  offset="1" style="stop-color:#FAA731"/>
			</linearGradient>
			<path style="fill:url(#SVGID_00000057131213789901457750000017865740499142490300_);" d="M185.12,107l-4.63,3.93l-6.2,5.26
				c-0.28,0.23-0.52,0.51-0.71,0.8c-0.38,0.57-0.58,1.22-0.57,1.87l0.24,12.97c0.04,2.46-2.83,4.34-4.87,3.18l-10.71-6.12
				c-0.81-0.46-1.86-0.46-2.81,0l-12.58,6.12c-2.39,1.16-4.69-0.72-3.89-3.18l2.9-8.93l1.04-3.2l0.27-0.85
				c0.32-0.98,0.15-1.98-0.46-2.67l-2.27-2.6l-5.75-6.58c-1.53-1.75-0.07-4.79,2.46-5.15l13.31-1.89c1-0.14,1.95-0.76,2.52-1.65
				l7.63-11.8c1.45-2.25,4.65-2.25,5.41,0l4.02,11.8c0.3,0.89,1.06,1.51,2.02,1.65l12.69,1.89l0.05,0.01
				C186.66,102.22,187.18,105.26,185.12,107z"/>
			<path class="st9" d="M161.36,88.61c-0.84-0.41-3.13,2.31-4.25,4.85c-0.12,0.28-1.35,3.12-0.61,3.64c0.57,0.4,2.11-0.69,3.03-1.7
				C161.75,92.99,162.24,89.04,161.36,88.61z"/>
			<path class="st9" d="M171.19,131.44c-0.54,0.23-1.4-0.47-1.82-1.09c-0.86-1.27-0.61-3.23,0.12-3.52c0.52-0.2,1.25,0.45,1.58,0.85
				C172.1,128.94,171.94,131.12,171.19,131.44z"/>
		</g>
	</g>
</g>
</svg>
