<?xml version="1.0" encoding="utf-8"?>
<!-- Generator: Adobe Illustrator 27.4.0, SVG Export Plug-In . SVG Version: 6.00 Build 0)  -->
<svg version="1.1" id="Layer_1" xmlns="http://www.w3.org/2000/svg" xmlns:xlink="http://www.w3.org/1999/xlink" x="0px" y="0px"
	 viewBox="0 0 595.28 841.89" style="enable-background:new 0 0 595.28 841.89;" xml:space="preserve">
<style type="text/css">
	.st0{fill:#005B94;}
	.st1{fill:#F8A357;}
	.st2{fill:#A06935;}
	.st3{fill:#FFFFFF;}
	.st4{font-family:'WickedMouse';}
	.st5{font-size:59.7552px;}
</style>
<g>
	<path class="st0" d="M517.83,524.49H77.65c-28.32,0-51.27-22.95-51.27-51.27v-84.45c0-28.32,22.95-51.27,51.27-51.27h440.18
		c28.32,0,51.27,22.95,51.27,51.27v84.45C569.1,501.54,546.14,524.49,517.83,524.49z"/>
	<path class="st1" d="M517.83,504.73H77.65c-28.32,0-51.27-22.95-51.27-51.27v-84.45c0-28.32,22.95-51.27,51.27-51.27h440.18
		c28.32,0,51.27,22.95,51.27,51.27v84.45C569.1,481.77,546.14,504.73,517.83,504.73z"/>
	<path class="st2" d="M465.35,455.87H130.13c-24.29,0-43.98-19.69-43.98-43.98l0,0c0-24.29,19.69-43.98,43.98-43.98h335.21
		c24.29,0,43.98,19.69,43.98,43.98l0,0C509.33,436.18,489.64,455.87,465.35,455.87z"/>
</g>
<text transform="matrix(1 0 0 1 110.1614 437.4326)" class="st3 st4 st5">FINAlizar</text>
</svg>
