<?xml version="1.0" encoding="utf-8"?>
<!-- Generator: Adobe Illustrator 27.4.0, SVG Export Plug-In . SVG Version: 6.00 Build 0)  -->
<svg version="1.1" id="Layer_1" xmlns="http://www.w3.org/2000/svg" xmlns:xlink="http://www.w3.org/1999/xlink" x="0px" y="0px"
	 viewBox="0 0 1080 501.38" style="enable-background:new 0 0 1080 501.38;" xml:space="preserve">
<style type="text/css">
	.st0{fill:#E6D3C9;}
	.st1{fill:#F4ECE6;}
	.st2{fill:#114C8D;}
	.st3{fill:#6C7AAC;}
	.st4{fill:#FFFFFF;}
	.st5{font-family:'WickedMouse';}
	.st6{font-size:146.691px;}
	.st7{fill:#FFFFFF;stroke:#000000;stroke-width:2.1429;stroke-miterlimit:10;}
</style>
<g>
	<path class="st0" d="M977.47,340.53c0.94,9.99,0.99,23.85-3,39.57c-8.32,32.79-28.96,53.01-38.37,61.16
		c0.07-10.49,1.27-23.71,5.4-38.37C950.13,372.2,967.02,351.44,977.47,340.53z"/>
	<path class="st0" d="M165.29,67.72c-13.09,2.69-28.05,8.2-41.57,19.19c-32.74,26.59-44.81,75.28-33.58,125.51
		c13.61-25.52,27.2-51.36,40.77-77.54C142.59,112.36,154.04,89.97,165.29,67.72z"/>
	<path class="st0" d="M875.04,463.19l-682.08-5.63c-44.82-1.54-84.26-37.4-88.48-81.83L87.56,197.18
		c-5.22-55.05,33.07-101.2,86.07-100.55l712.46,2.4c54.62,0.67,95.68,48.89,91.57,105.06l-13.3,181.72
		C961.05,430.92,921.01,464.76,875.04,463.19z"/>
	<path class="st1" d="M888.17,430.75l-682.08-5.63c-44.82-1.54-84.26-37.4-88.48-81.83l-16.93-178.54
		c-5.22-55.05,33.07-101.2,86.07-100.55l712.46,2.4c54.62,0.67,95.68,48.89,91.57,105.06l-13.3,181.72
		C974.18,398.49,934.15,432.33,888.17,430.75z"/>
	<path class="st2" d="M870.79,392.63l-647.95-4.46c-35.5-1.22-66.74-29.62-70.07-64.81l-13.41-141.41
		c-4.13-43.6,26.19-80.15,68.16-79.63l672.01,1.9c43.26,0.53,75.78,38.72,72.52,83.21l-10.53,143.92
		C938.91,367.08,907.21,393.89,870.79,392.63z"/>
	<path class="st3" d="M880.98,139.65c-50.04-1.04-618.07-2.07-668.11-3.11c-23.05-0.48-41.99,18.08-41.99,41.13v79.52
		c22.22-11.49,590.35-33.48,655.77-28.48c42.48,3.24,75.44,16.65,95.65,26.89c3.13-8.13-0.53-38.16-1.05-75.38
		C920.95,158.04,903.14,140.11,880.98,139.65z"/>
	<path class="st3" d="M906.48,353.44c-0.89-6.24-22.83-8.66-38.37-7.99c-25.95,1.12-55.12,11.77-54.36,19.19
		c0.78,7.58,32.94,13.23,60.76,6.4C888.77,367.52,907.33,359.4,906.48,353.44z"/>
</g>
<text transform="matrix(1 0 0 1 231.541 320.5869)" class="st4 st5 st6">INICIAR</text>
<path class="st7" d="M752.14,265.36"/>
</svg>
