<?xml version="1.0" encoding="utf-8"?>
<!-- Generator: Adobe Illustrator 27.4.0, SVG Export Plug-In . SVG Version: 6.00 Build 0)  -->
<svg version="1.1" id="Layer_1" xmlns="http://www.w3.org/2000/svg" xmlns:xlink="http://www.w3.org/1999/xlink" x="0px" y="0px"
	 viewBox="0 0 1351.28 793.7" style="enable-background:new 0 0 1351.28 793.7;" xml:space="preserve">
<style type="text/css">
	.st0{fill:#004A8F;}
	.st1{font-family:'GraviolaTigre-Medium';}
	.st2{font-size:29.1848px;}
	.st3{letter-spacing:5;}
	.st4{fill:#1E4A89;}
	.st5{fill:#034EA1;}
	.st6{fill:#98C93C;}
	.st7{fill:#003E74;}
	.st8{fill:#FFFFFF;}
	.st9{fill:#004A8E;}
	
		.st10{clip-path:url(#SVGID_00000016760652811340537370000009943830998005356193_);fill:url(#SVGID_00000101074154606916727910000007394496662449487528_);}
	.st11{fill-rule:evenodd;clip-rule:evenodd;fill:#004A8E;}
	.st12{fill-rule:evenodd;clip-rule:evenodd;fill:#D81F2D;}
	.st13{fill-rule:evenodd;clip-rule:evenodd;fill:#1F3465;}
	.st14{fill:#ED1C24;}
</style>
<text transform="matrix(1 0 0 1 549.1091 246.5386)" class="st0 st1 st2 st3">Patrocínio:</text>
<g>
	<rect x="610.59" y="267.45" class="st4" width="2.31" height="49.74"/>
	<rect x="351" y="267.45" class="st4" width="2.31" height="49.74"/>
	<g>
		<g>
			<g>
				<path class="st5" d="M259.43,284.77l1.6-4.47l1.51,4.47H259.43z M258.92,276.95l-5.2,13.65h3.77l1-2.89h4.91l0.33,0.97
					c0.47,1.4,1.19,1.91,2.82,1.91h1.98l-5.3-13.65H258.92z"/>
				<path class="st5" d="M232.39,287.45c-2.09,0-2.82-1.46-2.82-3.72c0-2.32,1.04-3.63,2.82-3.63c2.09,0,2.86,1.46,2.86,3.63
					C235.25,286.08,234.23,287.45,232.39,287.45 M232.39,276.7c-3.36,0-6.71,2.3-6.71,7.02c0,4.58,2.8,7.14,6.71,7.14
					c3.56,0,6.77-2.34,6.77-7.14C239.16,279.22,236.34,276.7,232.39,276.7"/>
				<path class="st5" d="M246.68,283.23H245v-3.2h1.8c1.66,0,2.23,0.47,2.23,1.6C249.03,282.77,248.36,283.23,246.68,283.23
					 M252.94,281.65c0-3.08-1.82-4.7-5.71-4.7h-5.99v13.65H245v-4.35h2.35l1.08,2.36c0.61,1.35,1.29,1.99,3.01,1.99h2.01l-2.76-5.15
					C252.15,284.77,252.94,283.33,252.94,281.65"/>
				<path class="st5" d="M316.7,276.95h-1.98l-3.36,6.2l-3.54-6.2h-3.79v13.65h3.58v-8.21l2.39,4.29h2.6l2.37-4.29v8.21h3.6v-11.8
					C318.55,277.58,318.05,276.95,316.7,276.95"/>
				<path class="st5" d="M299.41,276.95h-2.05v13.65h3.87v-11.8C301.23,277.58,300.68,276.95,299.41,276.95"/>
				<path class="st5" d="M293.87,276.95h-10.29v3.37h4.2v10.28h3.87v-10.28h4.05v-1.52C295.71,277.58,295.16,276.95,293.87,276.95"
					/>
				<path class="st5" d="M280.1,276.95h-1.76v7.8l-5.24-7.8h-3.46v13.65h3.6v-7.57l5.28,7.57h3.42v-11.8
					C281.94,277.58,281.39,276.95,280.1,276.95"/>
				<path class="st5" d="M222.95,276.95h-10.29v3.37h4.2v10.28h3.87v-10.28h4.05v-1.52C224.79,277.58,224.24,276.95,222.95,276.95"
					/>
				<path class="st5" d="M204.97,287.45c-2.09,0-2.82-1.46-2.82-3.72c0-2.32,1.04-3.63,2.82-3.63c2.09,0,2.86,1.46,2.86,3.63
					C207.83,286.08,206.81,287.45,204.97,287.45 M204.97,276.7c-3.36,0-6.71,2.3-6.71,7.02c0,4.58,2.8,7.14,6.71,7.14
					c3.56,0,6.77-2.34,6.77-7.14C211.74,279.22,208.92,276.7,204.97,276.7"/>
				<path class="st5" d="M187.66,278.85c-0.47-1.4-1.45-1.89-3.07-1.89h-2.01l4.67,11.41c0.65,1.58,1.53,2.42,3.13,2.42
					c0.46,0,0.87-0.07,1.24-0.22l-3.85-11.41L187.66,278.85z"/>
				<path class="st5" d="M191.18,284.66c-0.17,0.46-0.18,0.96-0.02,1.43l1.32,3.91c0.38-0.37,0.68-0.86,0.94-1.5l4.69-11.54h-4.07
					L191.18,284.66z"/>
				<path class="st5" d="M185.78,307.34c-0.74-0.4-1.32-1-1.75-1.81c-0.43-0.8-0.64-1.79-0.64-2.95c0-1.07,0.23-2.01,0.69-2.84
					c0.46-0.82,1.07-1.46,1.84-1.9c0.76-0.44,1.6-0.66,2.51-0.66c1.04,0,1.85,0.23,2.43,0.69c0.25,0.2,0.42,0.44,0.52,0.73
					c0.1,0.29,0.15,0.67,0.15,1.15v1.03c-0.43-0.2-0.81-0.34-1.13-0.42c-0.32-0.09-0.68-0.13-1.09-0.13c-1.57,0-2.35,0.78-2.35,2.33
					c0,0.75,0.18,1.33,0.53,1.73c0.36,0.4,0.88,0.6,1.58,0.6c0.54,0,0.97-0.05,1.3-0.14c0.33-0.09,0.72-0.25,1.19-0.47v2.83
					c-0.57,0.32-1.1,0.53-1.59,0.65c-0.49,0.12-1.06,0.18-1.69,0.18C187.36,307.95,186.52,307.74,185.78,307.34"/>
				<path class="st5" d="M193.82,296.07c-0.35-0.31-0.52-0.73-0.52-1.25c0-0.53,0.18-0.95,0.54-1.26c0.36-0.31,0.82-0.46,1.37-0.46
					c0.57,0,1.03,0.16,1.39,0.47c0.36,0.32,0.54,0.73,0.54,1.25c0,0.53-0.18,0.95-0.55,1.25c-0.37,0.31-0.84,0.46-1.4,0.46
					C194.62,296.53,194.16,296.38,193.82,296.07 M193.43,297.45h1.84c0.59,0,1.03,0.2,1.31,0.59c0.28,0.4,0.42,0.92,0.42,1.58v8.06
					h-3.58V297.45z"/>
				<path class="st5" d="M214.35,298.27c0.61,0.72,0.92,1.72,0.92,2.99v6.42h-3.58v-5.97c0-0.51-0.09-0.88-0.27-1.1
					c-0.18-0.22-0.45-0.33-0.82-0.33c-0.5,0-1,0.19-1.5,0.57c0.01,0.09,0.02,0.22,0.02,0.4v6.42h-3.58v-5.97
					c0-0.51-0.09-0.88-0.27-1.1c-0.18-0.22-0.45-0.33-0.82-0.33c-0.49,0-0.98,0.23-1.48,0.69v6.7h-3.58v-10.24h1.84
					c0.8,0,1.34,0.38,1.6,1.13c0.9-0.92,1.9-1.38,3-1.38c0.58,0,1.09,0.12,1.54,0.36c0.45,0.24,0.81,0.58,1.09,1.03
					c0.98-0.92,2.11-1.38,3.4-1.38C212.91,297.19,213.74,297.55,214.35,298.27"/>
				<path class="st5" d="M226.64,303.36h-6.32c0.13,0.58,0.4,1,0.81,1.27c0.41,0.26,0.97,0.4,1.68,0.4c0.66,0,1.24-0.04,1.75-0.13
					c0.51-0.09,1.1-0.28,1.77-0.58v2.65c-0.58,0.33-1.23,0.57-1.96,0.73c-0.72,0.16-1.44,0.24-2.15,0.24
					c-0.98,0-1.86-0.21-2.65-0.63c-0.79-0.42-1.41-1.03-1.87-1.84c-0.45-0.8-0.68-1.76-0.68-2.87c0-1.11,0.23-2.07,0.7-2.88
					c0.47-0.81,1.08-1.43,1.85-1.86c0.76-0.43,1.59-0.64,2.47-0.64c1.4,0,2.51,0.43,3.35,1.29c0.84,0.86,1.26,2.24,1.26,4.14V303.36
					z M223.43,301.44c-0.01-0.5-0.15-0.89-0.4-1.17c-0.25-0.28-0.59-0.42-1.01-0.42c-0.96,0-1.54,0.53-1.74,1.58H223.43z"/>
				<path class="st5" d="M237.68,298.26c0.63,0.71,0.95,1.71,0.95,2.98v6.44h-3.58v-5.95c0-0.96-0.42-1.44-1.25-1.44
					c-0.57,0-1.11,0.24-1.62,0.71v6.68h-3.58v-10.24h1.84c0.42,0,0.76,0.1,1.03,0.31c0.26,0.2,0.45,0.48,0.57,0.84
					c0.43-0.43,0.9-0.78,1.39-1.03c0.49-0.25,1.06-0.38,1.69-0.38C236.2,297.19,237.05,297.55,237.68,298.26"/>
				<path class="st5" d="M247.21,304.83c0.24-0.05,0.56-0.13,0.97-0.25v2.77c-0.88,0.38-1.9,0.57-3.04,0.57
					c-1.34,0-2.33-0.41-2.94-1.22c-0.62-0.81-0.93-1.91-0.93-3.31v-2.98h-1.82v-2.96h1.82v-3h1.84c0.59,0,1.03,0.2,1.31,0.59
					c0.28,0.4,0.42,0.92,0.42,1.58v0.83h3.28v2.96h-3.28v2.71c0,1.19,0.51,1.78,1.52,1.78C246.69,304.9,246.97,304.88,247.21,304.83
					"/>
				<path class="st5" d="M252.02,307.34c-0.81-0.4-1.47-1.01-1.98-1.82c-0.51-0.81-0.76-1.8-0.76-2.95c0-1.16,0.26-2.14,0.77-2.95
					c0.51-0.81,1.18-1.42,1.99-1.82c0.81-0.4,1.66-0.6,2.56-0.6c0.91,0,1.77,0.2,2.58,0.6c0.81,0.4,1.47,1.01,1.98,1.82
					c0.51,0.81,0.76,1.8,0.76,2.95c0,1.16-0.26,2.14-0.77,2.95c-0.51,0.81-1.18,1.42-1.99,1.82c-0.81,0.4-1.66,0.6-2.56,0.6
					C253.69,307.95,252.84,307.74,252.02,307.34 M255.89,304.29c0.3-0.42,0.45-0.99,0.45-1.72c0-0.72-0.15-1.3-0.45-1.72
					c-0.3-0.42-0.73-0.63-1.29-0.63c-0.55,0-0.98,0.21-1.29,0.63c-0.3,0.42-0.45,1-0.45,1.72c0,0.72,0.15,1.3,0.45,1.72
					c0.3,0.42,0.73,0.63,1.29,0.63C255.16,304.92,255.59,304.71,255.89,304.29"/>
				<path class="st5" d="M261.3,307.12v-2.75c0.47,0.22,1.02,0.42,1.64,0.57c0.62,0.16,1.22,0.24,1.8,0.24
					c0.66,0,1.14-0.04,1.45-0.11c0.31-0.07,0.46-0.22,0.46-0.44c0-0.21-0.1-0.36-0.3-0.44c-0.2-0.09-0.54-0.17-1.03-0.27
					c-0.42-0.08-0.81-0.16-1.17-0.26c-0.57-0.16-1.04-0.35-1.43-0.56c-0.39-0.22-0.71-0.54-0.96-0.97c-0.25-0.43-0.38-1-0.38-1.71
					c0-0.97,0.39-1.76,1.17-2.34c0.78-0.59,1.83-0.88,3.16-0.88c1.17,0,2.09,0.18,2.75,0.53c0.36,0.2,0.61,0.42,0.75,0.68
					c0.15,0.26,0.22,0.66,0.22,1.2v1.07c-0.37-0.2-0.84-0.37-1.4-0.51c-0.57-0.15-1.08-0.22-1.54-0.22c-0.67,0-1.15,0.04-1.43,0.12
					c-0.28,0.08-0.42,0.22-0.42,0.43c0,0.18,0.11,0.32,0.32,0.41s0.57,0.18,1.09,0.29c0.54,0.11,1.01,0.22,1.42,0.34
					c0.82,0.24,1.44,0.59,1.86,1.06c0.42,0.47,0.63,1.17,0.63,2.11c0,1.09-0.42,1.91-1.25,2.45c-0.83,0.54-1.98,0.81-3.46,0.81
					C263.66,307.95,262.35,307.67,261.3,307.12"/>
				<path class="st5" d="M141.76,314.69c1.12-0.62,3.99-2.67,7.04-9.71c-2.62-4.9-5.39-11.98-7.59-22.09
					c-0.32-1.45-1.79-0.72-1.79-0.72l-12.16,4.74c0,0-1.42,0.48-1.03,2.13c2.32,9.64,4.82,16.43,7.33,20.78
					c2.71,4.69,4.83,5.55,5.99,5.55c0,0,0.05,0,0.17-0.01C140.09,315.35,140.73,315.26,141.76,314.69"/>
				<path class="st6" d="M157.26,315.37h-0.02H157.26z"/>
				<path class="st6" d="M157.18,315.37h-0.05C157.15,315.37,157.17,315.37,157.18,315.37"/>
				<path class="st6" d="M157.24,315.37c-0.01,0-0.03,0-0.06,0H157.24z"/>
				<path class="st6" d="M157.13,315.37c-1.55,0-16.46,0-17.57,0L157.13,315.37z"/>
				<path class="st6" d="M157.26,315.37c10.66,0,15.78-35.73,17.24-44.56c0.19-1.16-0.65-1.91-2.08-1.35
					c-3.82,1.49-12.71,4.93-15.05,5.8c-1.63,0.61-1.71,1.62-1.8,2.25c-4.27,30.44-11.82,36.08-13.81,37.18
					c-1.03,0.57-1.67,0.66-2.02,0.67c-0.12,0-0.17,0.01-0.17,0.01L157.26,315.37z"/>
			</g>
		</g>
	</g>
	<g>
		<g>
			<path class="st7" d="M469.22,303.63l4.51,0V292.3h-9.75v3.89l5.05,0.02c-0.98,1.77-2.28,3.43-4.6,3.41
				c-2.56,0.13-5.07-2.02-5.13-5.58c-0.11-3.85,2.58-5.9,4.96-5.81c1.47,0.06,3.24,0.85,3.77,2.47l4.62-2.19
				c-1.96-3.26-5.15-4.92-8.22-4.79c-5.77-0.04-10.33,3.56-10.52,10.11c0,6.28,4.96,9.79,9.24,10.05c2.68,0.15,4.85-0.87,6.07-2.43
				V303.63z M477.1,303.65h13.39v-4.24h-8.09v-3.81h6.81v-4.11h-6.79v-3.34h8.07v-4.3H477.1V303.65z M549.51,283.85l0.02,12.39
				c0,4.79,2.92,7.52,8.3,7.41c5.22-0.11,7.81-2.41,8.26-7.37v-12.43h-5.24v11.84c0.13,2-0.89,3.26-3.02,3.32
				c-1.98,0.04-3.3-1-3.13-3.32v-11.84H549.51z M500.91,293.15c1.65-0.15,2.38-0.98,2.42-2.53c0.04-1.46-0.64-2.42-2.42-2.59
				c-0.38-0.04-0.81-0.02-1.28,0h-1.12v5.08l1.65,0.04C500.42,293.17,500.68,293.17,500.91,293.15z M500.91,283.87
				c2.06,0.06,3.71,0.3,5.08,1.31c1.54,1.2,2.33,2.85,2.33,4.93c0,3.09-1.61,4.97-4.54,5.66l5.72,7.88h-6.41l-2.19-3.41l-2.4-3.77
				v7.18h-5.18v-19.8h6.13C499.95,283.85,500.44,283.87,500.91,283.87z M519.9,283.94c1.71,0.17,3.13,0.67,4.37,1.52
				c2.33,1.76,4.09,4.46,4.2,8.31c-0.11,4.52-2.36,7.37-4.82,8.74c-1.05,0.51-2.25,0.86-3.75,1.03c-0.73,0.09-1.5,0.11-2.36,0.11
				h-5.89v-19.8h6.9C519,283.87,519.45,283.89,519.9,283.94z M519.9,298.85c1.86-0.45,3.09-1.93,3-5.21c-0.09-3.09-1.2-4.52-3-4.99
				c-0.41-0.11-0.86-0.17-1.31-0.19h-1.69v10.52h1.63C519,298.98,519.47,298.94,519.9,298.85z M538.45,283.87h3l7.26,19.78h-5.68
				l-1.07-3.64h-3.51h-3.56l-0.99,3.64h-5.59l6.86-19.78H538.45z M538.45,295.91h2.31l-2.31-6.99l-0.15-0.47l-2.17,7.46H538.45z"/>
			<rect x="397.8" y="261.54" class="st7" width="47.13" height="47.13"/>
			<path class="st8" d="M421.07,303.47h-3.43v-1.63c-1.27,1.18-3.07,2.12-5.55,2.12c-6.63,0-9.95-5.43-9.95-10.11
				c0-4.68,3.29-10.12,9.85-10.12c6.56,0,9.04,5.86,9.04,5.86l-2.97,1.78c0,0-2.05-3.88-6-3.88c-3.96,0-6.26,3.42-6.26,6.36
				c0,2.94,2.33,6.32,6.33,6.32c2.77,0,4.34-1.68,5.05-2.72h-5.09v-3.62h8.98V303.47z"/>
			<path class="st8" d="M421.65,293.84h8.98v3.62h-5.08c0.71,1.03,2.28,2.72,5.05,2.72c3.99,0,6.33-3.39,6.33-6.32
				c0-2.94-2.3-6.36-6.26-6.36c-3.96,0-6.01,3.88-6.01,3.88l-2.97-1.78c0,0,2.48-5.87,9.04-5.87c6.56,0,9.85,5.45,9.85,10.13
				c0,4.68-3.32,10.11-9.95,10.11c-2.48,0-4.27-0.94-5.55-2.12v1.63h-3.43V293.84z"/>
			<path class="st7" d="M562.41,321.53c0.42,0,0.77-0.11,1.06-0.33c0.29-0.22,0.44-0.51,0.44-0.86v-0.51c0-0.06-0.03-0.09-0.09-0.09
				h-1.03c-0.44,0-0.78,0.08-1.03,0.25c-0.25,0.16-0.38,0.4-0.38,0.7c0,0.26,0.09,0.47,0.28,0.62
				C561.85,321.45,562.1,321.53,562.41,321.53 M562.7,315.34c0.63,0,1.19,0.11,1.69,0.33c0.49,0.22,0.88,0.52,1.16,0.9
				c0.28,0.38,0.41,0.8,0.41,1.27v4.86c0,0.17-0.08,0.25-0.25,0.25h-1.56c-0.16,0-0.25-0.08-0.25-0.25v-0.35
				c0-0.04-0.01-0.06-0.03-0.07c-0.02,0-0.04,0.01-0.07,0.04c-0.45,0.49-1.11,0.74-1.99,0.74c-0.75,0-1.35-0.18-1.81-0.55
				c-0.46-0.37-0.68-0.91-0.68-1.63c0-0.75,0.26-1.33,0.79-1.74c0.52-0.41,1.27-0.62,2.24-0.62h1.47c0.06,0,0.09-0.03,0.09-0.09
				v-0.31c0-0.32-0.1-0.57-0.3-0.75c-0.2-0.18-0.49-0.27-0.87-0.27c-0.29,0-0.53,0.05-0.72,0.15c-0.19,0.1-0.32,0.23-0.39,0.41
				c-0.06,0.14-0.16,0.2-0.29,0.19l-1.62-0.2c-0.08-0.01-0.14-0.03-0.18-0.07c-0.04-0.03-0.06-0.08-0.05-0.14
				c0.05-0.4,0.22-0.76,0.5-1.08c0.29-0.32,0.66-0.57,1.14-0.75C561.61,315.43,562.13,315.34,562.7,315.34z M555.8,320.64
				c0.19-0.36,0.29-0.84,0.29-1.44c0-0.64-0.1-1.14-0.31-1.5c-0.24-0.38-0.57-0.57-0.98-0.57c-0.45,0-0.79,0.18-1.02,0.55
				c-0.23,0.39-0.35,0.9-0.35,1.53c0,0.57,0.1,1.05,0.31,1.43c0.23,0.42,0.59,0.63,1.06,0.63
				C555.24,321.26,555.57,321.06,555.8,320.64z M556.11,313c0-0.17,0.08-0.25,0.25-0.25h1.56c0.16,0,0.25,0.08,0.25,0.25v9.7
				c0,0.17-0.08,0.25-0.25,0.25h-1.56c-0.17,0-0.25-0.08-0.25-0.25v-0.39c0-0.04-0.01-0.06-0.04-0.07c-0.02,0-0.05,0.01-0.07,0.04
				c-0.4,0.52-0.95,0.79-1.66,0.79c-0.66,0-1.24-0.2-1.75-0.59c-0.51-0.39-0.86-0.91-1.06-1.55c-0.17-0.47-0.25-1.05-0.25-1.75
				c0-0.72,0.09-1.32,0.28-1.81c0.21-0.62,0.57-1.12,1.06-1.48c0.49-0.37,1.07-0.55,1.73-0.55c0.72,0,1.27,0.24,1.66,0.71
				c0.02,0.03,0.04,0.04,0.07,0.03c0.02-0.01,0.04-0.03,0.04-0.07V313z M548.25,322.94c-0.17,0-0.25-0.08-0.25-0.25V313
				c0-0.17,0.08-0.25,0.25-0.25h1.56c0.17,0,0.25,0.08,0.25,0.25v9.7c0,0.17-0.08,0.25-0.25,0.25H548.25z M543.18,321.29
				c0.31,0,0.58-0.1,0.8-0.29c0.22-0.19,0.38-0.46,0.48-0.8c0.08-0.26,0.12-0.6,0.12-1.02c0-0.41-0.04-0.75-0.12-1.03
				c-0.1-0.33-0.26-0.59-0.48-0.77c-0.22-0.18-0.5-0.28-0.83-0.28c-0.32,0-0.59,0.09-0.82,0.28c-0.22,0.18-0.38,0.44-0.48,0.77
				c-0.08,0.28-0.12,0.63-0.12,1.03c0,0.4,0.04,0.74,0.12,1.02c0.1,0.34,0.26,0.61,0.49,0.8
				C542.57,321.2,542.85,321.29,543.18,321.29z M543.18,323.06c-0.82,0-1.53-0.21-2.11-0.64c-0.58-0.43-0.98-1.01-1.19-1.75
				c-0.14-0.46-0.2-0.95-0.2-1.48c0-0.59,0.07-1.11,0.22-1.54c0.22-0.72,0.62-1.28,1.2-1.69c0.58-0.41,1.28-0.61,2.1-0.61
				c0.8,0,1.48,0.2,2.05,0.61c0.57,0.41,0.96,0.97,1.19,1.67c0.15,0.45,0.22,0.96,0.22,1.53c0,0.5-0.06,0.99-0.19,1.47
				c-0.22,0.76-0.62,1.35-1.2,1.78C544.68,322.84,543.99,323.06,543.18,323.06z M536,315.34c0.76,0,1.35,0.23,1.78,0.68
				c0.43,0.46,0.64,1.1,0.64,1.92v4.75c0,0.17-0.08,0.25-0.25,0.25h-1.56c-0.16,0-0.25-0.08-0.25-0.25v-4.29
				c0-0.4-0.1-0.71-0.31-0.95c-0.2-0.23-0.48-0.35-0.82-0.35s-0.62,0.12-0.83,0.35c-0.21,0.23-0.32,0.54-0.32,0.93v4.31
				c0,0.17-0.08,0.25-0.25,0.25h-1.54c-0.16,0-0.25-0.08-0.25-0.25v-4.29c0-0.39-0.11-0.7-0.32-0.94c-0.21-0.24-0.49-0.36-0.83-0.36
				c-0.31,0-0.57,0.09-0.78,0.28c-0.21,0.18-0.33,0.44-0.37,0.77v4.54c0,0.17-0.08,0.25-0.25,0.25h-1.56
				c-0.17,0-0.25-0.08-0.25-0.25v-6.99c0-0.16,0.08-0.25,0.25-0.25h1.56c0.17,0,0.25,0.08,0.25,0.25v0.47
				c0,0.04,0.01,0.06,0.04,0.07c0.02,0.01,0.05,0,0.07-0.04c0.4-0.57,1.01-0.86,1.83-0.86c0.49,0,0.91,0.1,1.27,0.3
				c0.36,0.2,0.64,0.49,0.83,0.87c0.01,0.04,0.03,0.06,0.05,0.05c0.02,0,0.05-0.02,0.07-0.05c0.22-0.39,0.51-0.68,0.87-0.87
				C535.14,315.44,535.55,315.34,536,315.34z M520.06,317.1c-0.31,0-0.57,0.08-0.78,0.23c-0.21,0.15-0.35,0.36-0.43,0.63
				c-0.05,0.18-0.08,0.31-0.09,0.36c-0.01,0.06,0.01,0.09,0.07,0.09h2.47c0.05,0,0.07-0.02,0.07-0.06c0-0.11-0.02-0.22-0.06-0.33
				c-0.09-0.28-0.24-0.5-0.45-0.67C520.66,317.18,520.39,317.1,520.06,317.1z M520.44,321.32c0.64-0.03,1.13-0.25,1.47-0.67
				c0.06-0.07,0.12-0.1,0.19-0.1c0.06,0,0.11,0.02,0.16,0.07l0.83,0.8c0.06,0.06,0.09,0.12,0.09,0.17c0,0.07-0.02,0.13-0.06,0.17
				c-0.32,0.4-0.73,0.71-1.23,0.94c-0.5,0.23-1.05,0.34-1.64,0.34c-0.89,0-1.63-0.23-2.22-0.68c-0.59-0.46-0.98-1.08-1.19-1.88
				c-0.12-0.43-0.17-0.88-0.17-1.35c0-0.56,0.05-1.04,0.16-1.43c0.19-0.72,0.58-1.3,1.17-1.73c0.59-0.44,1.28-0.66,2.09-0.66
				c0.95,0,1.71,0.28,2.26,0.84c0.56,0.56,0.92,1.35,1.08,2.37c0.04,0.32,0.07,0.67,0.09,1.06c0,0.16-0.08,0.25-0.25,0.25h-4.47
				c-0.06,0-0.09,0.03-0.09,0.09c0.03,0.2,0.06,0.35,0.1,0.45c0.1,0.3,0.29,0.53,0.58,0.69
				C519.69,321.24,520.03,321.32,520.44,321.32z M512.49,323.04c-0.65,0-1.22-0.09-1.7-0.28c-0.49-0.18-0.86-0.44-1.12-0.77
				c-0.26-0.33-0.39-0.7-0.39-1.12v-0.07c0-0.16,0.08-0.25,0.25-0.25h1.47c0.16,0,0.25,0.03,0.25,0.09v0.1
				c0,0.21,0.12,0.4,0.35,0.55c0.23,0.15,0.53,0.23,0.89,0.23c0.33,0,0.6-0.06,0.8-0.19c0.2-0.13,0.31-0.29,0.31-0.49
				c0-0.17-0.09-0.31-0.26-0.39c-0.17-0.09-0.46-0.18-0.86-0.28c-0.48-0.13-0.83-0.24-1.06-0.33c-0.63-0.21-1.13-0.48-1.5-0.79
				c-0.37-0.31-0.55-0.76-0.55-1.34c0-0.72,0.28-1.29,0.84-1.71c0.56-0.42,1.3-0.63,2.21-0.63c0.62,0,1.17,0.1,1.64,0.3
				c0.47,0.2,0.83,0.48,1.09,0.84c0.26,0.36,0.39,0.77,0.39,1.22c0,0.05-0.02,0.09-0.07,0.12c-0.04,0.03-0.1,0.05-0.18,0.05h-1.43
				c-0.17,0-0.25-0.03-0.25-0.09v-0.09c0-0.21-0.11-0.39-0.32-0.54c-0.21-0.15-0.5-0.22-0.86-0.22c-0.32,0-0.58,0.06-0.79,0.17
				c-0.21,0.12-0.31,0.28-0.31,0.48c0,0.19,0.1,0.34,0.3,0.44c0.2,0.1,0.53,0.2,0.98,0.31c0.28,0.06,0.55,0.13,0.82,0.22
				c0.7,0.2,1.25,0.47,1.65,0.79c0.4,0.32,0.6,0.79,0.6,1.4c0,0.72-0.29,1.28-0.86,1.68C514.22,322.84,513.45,323.04,512.49,323.04z
				 M501.81,321.29c0.31,0,0.58-0.1,0.8-0.29c0.22-0.19,0.38-0.46,0.48-0.8c0.08-0.26,0.12-0.6,0.12-1.02
				c0-0.41-0.04-0.75-0.12-1.03c-0.1-0.33-0.26-0.59-0.48-0.77c-0.22-0.18-0.5-0.28-0.83-0.28c-0.32,0-0.59,0.09-0.82,0.28
				c-0.22,0.18-0.38,0.44-0.48,0.77c-0.08,0.28-0.12,0.63-0.12,1.03c0,0.4,0.04,0.74,0.12,1.02c0.1,0.34,0.26,0.61,0.49,0.8
				C501.2,321.2,501.48,321.29,501.81,321.29z M501.81,323.06c-0.82,0-1.53-0.21-2.11-0.64c-0.58-0.43-0.98-1.01-1.19-1.75
				c-0.14-0.46-0.2-0.95-0.2-1.48c0-0.59,0.07-1.11,0.22-1.54c0.22-0.72,0.62-1.28,1.2-1.69c0.58-0.41,1.28-0.61,2.1-0.61
				c0.8,0,1.48,0.2,2.05,0.61c0.57,0.41,0.96,0.97,1.19,1.67c0.15,0.45,0.22,0.96,0.22,1.53c0,0.5-0.06,0.99-0.19,1.47
				c-0.22,0.76-0.62,1.35-1.2,1.78C503.3,322.84,502.61,323.06,501.81,323.06z M496.83,315.35c0.31,0,0.57,0.06,0.77,0.17
				c0.12,0.06,0.16,0.16,0.13,0.31l-0.28,1.53c-0.01,0.09-0.04,0.14-0.08,0.16s-0.11,0.02-0.21,0c-0.16-0.04-0.3-0.06-0.42-0.06
				c-0.07,0-0.18,0.01-0.33,0.03c-0.35,0.03-0.65,0.16-0.89,0.39c-0.24,0.23-0.36,0.53-0.36,0.91v3.9c0,0.17-0.08,0.25-0.25,0.25
				h-1.56c-0.17,0-0.25-0.08-0.25-0.25v-6.99c0-0.16,0.08-0.25,0.25-0.25h1.56c0.17,0,0.25,0.08,0.25,0.25v0.45
				c0,0.04,0.01,0.06,0.03,0.07c0.02,0.01,0.04,0,0.07-0.03C495.64,315.64,496.17,315.35,496.83,315.35z M489.54,315.7
				c0-0.16,0.08-0.25,0.25-0.25h1.56c0.16,0,0.25,0.08,0.25,0.25v6.99c0,0.17-0.08,0.25-0.25,0.25h-1.56
				c-0.17,0-0.25-0.08-0.25-0.25v-0.39c0-0.04-0.01-0.06-0.04-0.07c-0.02,0-0.05,0.01-0.07,0.04c-0.38,0.51-0.98,0.77-1.79,0.77
				c-0.74,0-1.34-0.22-1.82-0.67c-0.48-0.45-0.71-1.07-0.71-1.88v-4.79c0-0.16,0.08-0.25,0.25-0.25h1.54c0.17,0,0.25,0.08,0.25,0.25
				v4.28c0,0.39,0.1,0.7,0.31,0.95c0.21,0.24,0.5,0.36,0.87,0.36c0.33,0,0.6-0.1,0.82-0.3c0.21-0.2,0.34-0.46,0.39-0.78V315.7z
				 M483.93,316.85c0,0.17-0.08,0.25-0.25,0.25h-1.31c-0.06,0-0.09,0.03-0.09,0.09v3.01c0,0.32,0.07,0.56,0.2,0.71
				c0.13,0.15,0.34,0.23,0.63,0.23h0.41c0.17,0,0.25,0.08,0.25,0.25v1.25c0,0.16-0.08,0.24-0.25,0.26c-0.37,0.02-0.64,0.03-0.8,0.03
				c-0.81,0-1.41-0.14-1.81-0.41c-0.4-0.27-0.6-0.78-0.61-1.51v-3.81c0-0.06-0.03-0.09-0.09-0.09h-0.74c-0.17,0-0.25-0.08-0.25-0.25
				v-1.15c0-0.16,0.08-0.25,0.25-0.25h0.74c0.06,0,0.09-0.03,0.09-0.09v-1.65c0-0.17,0.08-0.25,0.25-0.25h1.48
				c0.17,0,0.25,0.08,0.25,0.25v1.65c0,0.06,0.03,0.09,0.09,0.09h1.31c0.17,0,0.25,0.08,0.25,0.25V316.85z M476.07,315.7
				c0-0.16,0.08-0.25,0.25-0.25h1.56c0.16,0,0.25,0.08,0.25,0.25v6.99c0,0.17-0.08,0.25-0.25,0.25h-1.56
				c-0.17,0-0.25-0.08-0.25-0.25v-0.39c0-0.04-0.01-0.06-0.04-0.07c-0.02,0-0.05,0.01-0.07,0.04c-0.38,0.51-0.98,0.77-1.79,0.77
				c-0.74,0-1.34-0.22-1.82-0.67c-0.48-0.45-0.71-1.07-0.71-1.88v-4.79c0-0.16,0.08-0.25,0.25-0.25h1.54c0.17,0,0.25,0.08,0.25,0.25
				v4.28c0,0.39,0.1,0.7,0.31,0.95c0.21,0.24,0.5,0.36,0.87,0.36c0.33,0,0.6-0.1,0.82-0.3c0.21-0.2,0.34-0.46,0.39-0.78V315.7z
				 M470.26,315.44c0.17,0,0.25,0.08,0.25,0.25v1.24c0,0.17-0.08,0.25-0.25,0.25h-1.32c-0.06,0-0.09,0.03-0.09,0.09v5.43
				c0,0.17-0.08,0.25-0.25,0.25h-1.56c-0.17,0-0.25-0.08-0.25-0.25v-5.43c0-0.06-0.03-0.09-0.09-0.09h-0.77
				c-0.17,0-0.25-0.08-0.25-0.25v-1.24c0-0.16,0.08-0.25,0.25-0.25h0.77c0.06,0,0.09-0.03,0.09-0.09v-0.31c0-0.6,0.09-1.07,0.28-1.4
				c0.18-0.33,0.48-0.57,0.9-0.71c0.41-0.14,0.98-0.2,1.71-0.18h0.48c0.17,0,0.25,0.08,0.25,0.25v1.03c0,0.16-0.08,0.25-0.25,0.25
				h-0.41c-0.34,0.01-0.57,0.08-0.71,0.21c-0.13,0.13-0.2,0.37-0.2,0.72v0.15c0,0.06,0.03,0.09,0.09,0.09H470.26z M457.87,321.34
				c0.53,0,0.97-0.17,1.3-0.51c0.33-0.34,0.49-0.79,0.49-1.35v-3.2c0-0.56-0.16-1.02-0.49-1.36c-0.33-0.34-0.76-0.52-1.3-0.52
				c-0.53,0-0.96,0.17-1.29,0.52c-0.33,0.34-0.49,0.8-0.49,1.36v3.2c0,0.56,0.16,1.01,0.49,1.35
				C456.91,321.17,457.34,321.34,457.87,321.34z M457.87,323.1c-0.76,0-1.42-0.16-2-0.47c-0.58-0.31-1.03-0.74-1.35-1.3
				c-0.32-0.56-0.48-1.2-0.48-1.93v-3.12c0-0.72,0.16-1.35,0.48-1.91c0.32-0.55,0.77-0.98,1.35-1.29c0.58-0.31,1.24-0.46,2-0.46
				c0.77,0,1.44,0.15,2.02,0.46c0.58,0.31,1.03,0.74,1.35,1.29c0.32,0.55,0.48,1.19,0.48,1.91v3.12c0,0.73-0.16,1.37-0.48,1.94
				c-0.32,0.56-0.77,1-1.35,1.3C459.31,322.95,458.64,323.1,457.87,323.1z"/>
		</g>
	</g>
	<g>
		<g>
			<path class="st9" d="M792.35,290.42c2.15,0.74,6.31-0.86,8.18-5.71c1.8-4.66,0.39-9.03-2.27-9.71c-3.5-0.9-5.33,1.29-7.52,5.12
				C788.21,284.53,788.23,288.99,792.35,290.42"/>
			<path class="st9" d="M824.96,303.94c-3.34-3.01-7.32-1.76-9.1,1.31c-0.97,1.46-2.02,0.48-1.37-1.31
				c1.47-4.04,1.76-7.17-1.67-9.27c-2.15-1.32-2.65-1.68-4.76-4.57c-1.37-1.89-3.58-2.03-5.61-0.6c-2.65,2.34-5.81,3.36-9.16,3.37
				c-1.21,0-2.58-0.03-3.8,0c-1.53,0.04-2.12,0.37-2.75,1.3c-3.7,5.49-2.89,10.17,1.37,11.62c1.74,0.6,2.79,0.99,3.76,3.08
				c1.07,2.41,2.59,3.53,4.68,3.74c0.63,0.06,1.75,0.73,2.25,1.47c1.91,2.88,3.88,3.91,7.05,2.96c3.09-0.93,5.9-3.46,7.8-7.19
				c0.44-0.99,1.66-0.65,2.7,0.48c2.79,3.05,6.6,1.59,9.05-1.95C826.39,306.93,826.1,304.97,824.96,303.94"/>
			<path class="st9" d="M806.57,286c3.91,2.38,7.41-0.14,9.5-3.67c3.19-5.38,1.92-7.23-0.01-8.15c-1.41-0.67-5.88-2.02-9.97,2.7
				C802.91,280.55,803.67,284.24,806.57,286"/>
			<path class="st9" d="M824.19,285.06c-4.75-1.11-6.99,3.99-7.82,5.62c-2.18,4.26-0.26,6.63,2.17,7.2
				c2.71,0.63,5.42-1.41,7.55-5.72C828.73,286.81,826.78,285.66,824.19,285.06"/>
		</g>
		<g>
			<defs>
				<path id="SVGID_1_" d="M774.75,295.49c0,10.18,4.87,19.23,12.4,24.94h1.38c-6.92-5.53-11.35-14.05-11.35-23.6
					c0-16.68,13.52-30.2,30.21-30.2c14.58,0,26.75,10.33,29.58,24.08c-2.3-15-15.27-26.5-30.92-26.5
					C788.76,264.21,774.75,278.22,774.75,295.49"/>
			</defs>
			<clipPath id="SVGID_00000122691714966838316960000012165597495989827715_">
				<use xlink:href="#SVGID_1_"  style="overflow:visible;"/>
			</clipPath>
			
				<linearGradient id="SVGID_00000053503656299010361390000000341078600612909214_" gradientUnits="userSpaceOnUse" x1="-235.2245" y1="-1607.9655" x2="-230.3298" y2="-1607.9655" gradientTransform="matrix(15.1973 -15.1973 -15.1973 -15.1973 -20095.0996 -27680.1172)">
				<stop  offset="0" style="stop-color:#F48120"/>
				<stop  offset="0.3" style="stop-color:#F48120"/>
				<stop  offset="0.4271" style="stop-color:#FDC71B"/>
				<stop  offset="0.45" style="stop-color:#FFD41A"/>
				<stop  offset="0.6004" style="stop-color:#8AC650"/>
				<stop  offset="0.8" style="stop-color:#00ADEE"/>
				<stop  offset="0.9996" style="stop-color:#004A8E"/>
				<stop  offset="1" style="stop-color:#004A8E"/>
			</linearGradient>
			
				<polygon style="clip-path:url(#SVGID_00000122691714966838316960000012165597495989827715_);fill:url(#SVGID_00000053503656299010361390000000341078600612909214_);" points="
				746.64,292.32 805.86,233.1 865.08,292.32 805.86,351.54 			"/>
		</g>
		<g>
			<polygon class="st11" points="660.25,310.15 664.62,285.41 673.9,285.41 674.72,280.74 646.94,280.74 646.1,285.42 
				655.36,285.43 650.98,310.15 			"/>
			<polygon class="st11" points="681.13,310.15 686.34,280.74 677.08,280.74 671.87,310.15 			"/>
			<path class="st9" d="M706.41,284.95c5.69-0.25,9.12,1.42,9.54,1.59l0.93-5.25c-2.97-0.77-6.1-1.21-9.23-1.21h-1.36
				c-11.54,0-18.49,8.7-20.02,16.41c0,0-0.04,0.2-0.06,0.27h0.01c-0.18,1-0.28,1.97-0.28,2.91c0,6.53,4.01,11.11,12.15,11.11
				c0.28,0,0.56,0,0.83-0.01c0.17,0,0.35,0.01,0.53,0.01c4.33,0,8.73-0.52,12.45-1.33l2.3-12.96l0-0.01h-9.24l-1.54,8.66
				c-0.01,0-0.02-0.02-0.03-0.03c-1.13,0.15-2.31,0.05-3.46-0.37c-3.43-1.25-5.34-4.8-4.59-8.26h-0.01
				C696.2,290.95,700.62,285.2,706.41,284.95"/>
			<path class="st11" d="M733.11,310.13h9.26l-4.85-13.38c4.25-1.83,6.53-5.55,6.7-10.1c0.11-2.82-2.07-5.91-7.92-5.91h-16.52
				l-5.21,29.39h9.26l4.39-24.72c0,0,2.9,0,4.09,0c1.53-0.01,2.78,0.59,2.78,2.44c0,2.77-2.77,6.51-6.75,6.51l-0.91,0.01
				L733.11,310.13z"/>
			<polygon class="st11" points="743.8,310.13 749.02,280.74 771.06,280.74 770.2,285.61 757.41,285.61 756.14,292.77 
				766.43,292.77 765.57,297.16 755.36,297.16 753.92,305.25 766.72,305.25 765.85,310.13 			"/>
		</g>
	</g>
	<rect x="1067.26" y="267.45" class="st4" width="2.31" height="49.74"/>
	<rect x="859.79" y="267.45" class="st4" width="2.31" height="49.74"/>
	<g>
		<g>
			<path class="st12" d="M942.8,279.84c-2.32,2.35-4.04,4.88-5.18,7.43c1.01-1.7,2.3-3.37,3.87-4.96c9.35-9.48,25.02-12.55,35-6.85
				c9.62,5.49,10.45,17.12,2.13,26.44c0.36-0.33,0.71-0.67,1.05-1.02c9.53-9.67,9.29-22.58-0.9-28.39
				C968.6,266.69,952.33,270.17,942.8,279.84"/>
			<path class="st12" d="M948.32,314c2.95,0.83,6.09,1.11,9.26,0.9c-2.12-0.07-4.2-0.37-6.19-0.94
				c-11.87-3.36-15.97-14.64-9.18-25.17c6.55-10.15,20.85-15.93,32.5-13.32c-0.41-0.14-0.84-0.28-1.27-0.4
				c-12.1-3.43-28.28,2.5-35.22,13.25C931.28,299.07,936.22,310.57,948.32,314"/>
			<path class="st12" d="M990.05,287.07c-0.07-2.68-0.81-5.11-2.08-7.21c0.62,1.55,0.98,3.25,1.03,5.06
				c0.28,10.8-10.53,21.69-24.15,24.32c-13.13,2.53-24.07-3.54-25.1-13.66c-0.02,0.4-0.02,0.79-0.01,1.19
				c0.29,11.02,11.6,18.49,25.5,15.81C979.12,309.89,990.34,298.09,990.05,287.07"/>
			<polygon class="st13" points="930.16,282 924.39,301.66 931.96,301.65 937.73,282 			"/>
			<path class="st13" d="M910.01,298.07c-3.9,0-4.91-2.99-4.01-6.15c0.91-3.16,3.88-6.16,7.55-6.16c2.41,0,4.42,1.61,4.24,4.08v0
				l8.25-0.05l-0.03-0.75c-0.31-4.5-4.7-7.81-11.06-7.8c-7.64,0.01-15.24,4.79-16.96,10.69c-1.72,5.9,3.08,10.68,10.73,10.67
				c6.28,0,12.52-3.23,15.5-7.65l0.36-0.72l-8.29,0.08C914.52,296.88,912.31,298.07,910.01,298.07"/>
			<polygon class="st13" points="999.23,289.63 1000.08,286.54 1008.93,286.53 1010.26,282.21 993.95,282.23 988.29,301.61 
				1004.61,301.6 1005.93,297.06 997.07,297.06 997.92,293.96 1004.7,293.95 1006.03,289.63 			"/>
			<path class="st13" d="M1020.61,291.69c1.89-1.12,2.71-1.8,2.99-2.72c0.24-0.81,0-2.24-2.22-2.23l-2.87,0l-4.26,14.82l-7.67,0.01
				l5.66-19.4l11.32-0.01c7.35-0.01,9.19,2.84,8.2,6.21c-0.68,2.35-3.85,4.38-5.3,4.93l2.76,8.25l-8.56,0.01l-1.46-5.99
				C1018.73,294.04,1018.93,292.68,1020.61,291.69"/>
			<path class="st13" d="M970.88,286.9c0.11-1.26-1.69-3.68-5.36-3.68c-2.55,0-5.1,0.38-5.8,2.35c-0.68,1.93,3.2,2.92,5.81,3.5
				c5.98,1.3,15.11,1.98,12.52,9.03c-2.02,5.5-10.74,7.8-19.55,7.53c-6.34-0.2-13.36-2.96-13.75-9.21l9.69,0.29
				c0.3,3.05,3.59,4.09,6.04,4.26c2.62,0.18,6.34-1,6.97-2.74c1.3-3.54-7.44-3-14.81-5.72c-3.43-1.26-4.78-3.72-3.7-6.52
				c2.22-5.76,9.63-7.89,17.88-7.69c7.58,0.18,13.3,2.87,14.19,8.88L970.88,286.9z"/>
		</g>
	</g>
	<g>
		<g>
			<path class="st14" d="M1160.99,261.69c30.26,0,54.81,13.72,54.81,30.63c0,16.91-24.55,30.63-54.8,30.63
				c-30.25,0-54.81-13.72-54.81-30.63C1106.19,275.41,1130.74,261.69,1160.99,261.69 M1160.99,264.45
				c-28.72,0-52.03,12.5-52.03,27.87c0,15.37,23.31,27.85,52.04,27.85c28.72,0,52.04-12.48,52.04-27.85
				C1213.03,276.95,1189.71,264.45,1160.99,264.45 M1151.37,295.26h-10.78c0.12,2.66,1.61,3.9,3.84,3.9c1.66,0,2.8-0.94,3.09-1.88
				h3.54c-0.91,3.22-3.53,4.71-6.77,4.71c-4.6,0-7.45-3.16-7.45-7.69c0-4.38,3.02-7.72,7.45-7.72
				C1149.25,286.58,1151.65,290.76,1151.37,295.26 M1144.17,289.34c-2.24,0-3.39,1.5-3.57,3.41h7.01
				C1147.33,290.71,1146.48,289.34,1144.17,289.34 M1198.07,295.26h-10.78c0.12,2.66,1.61,3.9,3.84,3.9c1.66,0,2.8-0.94,3.09-1.88
				h3.54c-0.91,3.22-3.53,4.71-6.77,4.71c-4.6,0-7.45-3.16-7.45-7.69c0-4.38,3.02-7.72,7.45-7.72
				C1195.95,286.58,1198.35,290.76,1198.07,295.26 M1190.87,289.34c-2.23,0-3.39,1.5-3.57,3.41h7.01
				C1194.04,290.71,1193.18,289.34,1190.87,289.34 M1117.96,301.6h4.01v-8.71h8.64v8.71h4.01v-20.24h-4.01v8.29h-8.64v-8.29h-4.01
				V301.6z M1153.58,301.6h3.76v-7.91c0-2.97,1.05-4.19,3.22-4.19c1.86,0,2.7,1.19,2.7,3.59v8.5h3.76v-8.99
				c0-3.62-1.07-6.02-5.33-6.02c-1.69,0-3.44,0.79-4.46,2.43h-0.08v-2.04h-3.56V301.6z M1170.24,301.6h3.76v-7.92l5.56,7.92h4.68
				l-6.13-8.2l5.43-6.42h-4.5l-5.05,6.31v-11.92h-3.76V301.6z M1200.28,301.6h3.76v-20.24h-3.76V301.6z"/>
		</g>
	</g>
</g>
</svg>
