<?xml version="1.0" encoding="utf-8"?>
<!-- Generator: Adobe Illustrator 27.4.0, SVG Export Plug-In . SVG Version: 6.00 Build 0)  -->
<svg version="1.1" id="Layer_1" xmlns="http://www.w3.org/2000/svg" xmlns:xlink="http://www.w3.org/1999/xlink" x="0px" y="0px"
	 viewBox="0 0 595.28 841.89" style="enable-background:new 0 0 595.28 841.89;" xml:space="preserve">
<style type="text/css">
	.st0{fill:#E6D3C9;}
	.st1{fill:#005B94;}
	.st2{fill:#E87725;}
	.st3{fill:url(#SVGID_1_);}
	.st4{fill:#FFFFFF;}
	.st5{fill:url(#SVGID_00000109025357086297034830000007447924328464873349_);}
	.st6{fill:#FADD8D;}
</style>
<path class="st0" d="M426.48,522.97H169.83c-14.57,0-26.38-11.81-26.38-26.38V239.94c0-14.57,11.81-26.38,26.38-26.38h256.65
	c14.57,0,26.38,11.81,26.38,26.38v256.65C452.85,511.16,441.04,522.97,426.48,522.97z"/>
<path class="st1" d="M417.2,626.07H184.54c-12.98,0-23.5-10.52-23.5-23.5v-38.71c0-12.98,10.52-23.5,23.5-23.5H417.2
	c12.98,0,23.5,10.52,23.5,23.5v38.71C440.7,615.55,430.18,626.07,417.2,626.07z"/>
<path class="st2" d="M215.93,444.27c-0.3,2.42-0.53,6.92,1.28,12.06c2.37,6.75,6.86,10.66,8.83,12.18
	c5.67-4.81,6.92-12.76,3.41-18.28C226.72,445.94,221.41,443.61,215.93,444.27z"/>
<path class="st2" d="M402.58,321.22c5.33,1.91,8.25,5.02,9.5,6.58c5.86,7.25,6.2,18.26,1.46,25.28c-1.09,1.62-2.27,2.76-3.11,3.47
	c-1.89-1.57-8.04-7.09-10.05-16.69C398.47,330.72,401.5,323.51,402.58,321.22z"/>
<g>
	<linearGradient id="SVGID_1_" gradientUnits="userSpaceOnUse" x1="305.1092" y1="250.3311" x2="305.1092" y2="475.151">
		<stop  offset="0" style="stop-color:#FAC624"/>
		<stop  offset="1" style="stop-color:#FAA731"/>
	</linearGradient>
	<path class="st3" d="M347.53,473.07c-2.57,0-4.98-0.63-7.16-1.88l-43.03-24.6c-1.06-0.61-2.34-0.93-3.69-0.93
		c-1.43,0-2.92,0.36-4.32,1.04l-50.56,24.6c-2.42,1.18-4.9,1.77-7.39,1.77c-4.61,0-8.74-2.05-11.33-5.62
		c-2.38-3.28-3.15-7.49-2.17-11.73c-2.11-1.25-3.83-3.04-5-5.24c-1.82-3.41-2.09-7.52-0.77-11.56l16.36-50.46l-26.64-30.52
		c-2.82-3.23-3.9-7.46-3.11-11.86l-3.07-3.51c-3.43-3.92-4.3-9.44-2.32-14.76c2.3-6.19,7.93-10.78,14.34-11.69l53.48-7.6
		c3.05-0.43,5.93-2.32,7.69-5.06l30.65-47.41c3.39-5.24,8.93-8.37,14.84-8.37c6.19,0,11.23,3.5,13.15,9.14l3.76,11.03
		c1.06,1.26,1.87,2.72,2.42,4.33l11.86,34.83c0.93,0.79,2.1,1.31,3.41,1.5l51.18,7.6c4.42,0.66,7.96,3.09,9.98,6.85
		c1.65,3.06,2.07,6.74,1.28,10.3c3.13,1.84,5.37,4.88,6.21,8.61c1.33,5.86-0.97,12.16-6,16.42l-43.5,36.9
		c-2.49,2.11-3.95,5.1-3.89,8l0.96,52.11c0.08,4.5-1.71,8.85-5.06,12.26C356.65,471.07,352.07,473.07,347.53,473.07L347.53,473.07z"
		/>
	<path class="st4" d="M314.33,251.18c4.32,0,8.3,2.26,9.84,6.77l3.99,11.7c0.94,0.99,1.7,2.21,2.19,3.67l12.14,35.64
		c1.52,1.6,3.57,2.68,5.94,3.02l50.97,7.57l0.19,0.03c7.65,1.14,10.58,8.95,7.45,15.65c8.62,2.28,10.18,13.71,2.29,20.41l-43.5,36.9
		c-3.28,2.78-5.2,6.8-5.13,10.73l0.97,52.11c0.15,7.84-7.05,14.2-14.12,14.2c-1.86,0-3.72-0.44-5.43-1.42l-43.03-24.6
		c-1.62-0.93-3.49-1.39-5.43-1.39s-3.95,0.46-5.85,1.39l-50.56,24.6c-2.01,0.98-4,1.42-5.86,1.42c-7.06,0-12.32-6.36-9.77-14.2
		l0.52-1.61c-5.41-1.55-8.86-7.13-6.7-13.76l11.63-35.87l4.16-12.84l1.1-3.41c0.03-0.08,0.04-0.16,0.06-0.25l-27.94-32
		c-2.59-2.97-3.03-6.87-1.92-10.49l-4.26-4.88c-6.14-7.02-0.29-19.23,9.88-20.68l53.48-7.6c4.03-0.57,7.83-3.05,10.14-6.63
		l30.65-47.4C305.34,253.44,310,251.18,314.33,251.18 M314.33,244.18c-7.1,0-13.75,3.73-17.78,9.97l-30.65,47.4
		c-1.21,1.88-3.21,3.21-5.23,3.5l-53.49,7.6c-7.67,1.09-14.4,6.57-17.14,13.94c-2.43,6.54-1.32,13.38,2.97,18.28l2.02,2.31
		c-0.44,4.83,0.99,9.43,4.15,13.06l25.34,29.03l-4.12,12.7l-11.63,35.87c-1.61,4.95-1.25,10.02,1.01,14.28
		c1.08,2.03,2.53,3.79,4.28,5.2c-0.47,4.41,0.61,8.69,3.15,12.18c3.26,4.49,8.43,7.07,14.17,7.07c3.02,0,6.03-0.71,8.92-2.13
		l50.56-24.6c0.92-0.45,1.89-0.69,2.79-0.69c0.74,0,1.42,0.16,1.95,0.47l43.03,24.6c2.68,1.53,5.76,2.34,8.9,2.34
		c5.48,0,10.97-2.39,15.06-6.55c4.01-4.08,6.16-9.33,6.06-14.77l-0.97-52.11c-0.03-1.83,0.98-3.84,2.66-5.26l43.5-36.9
		c6.03-5.11,8.77-12.73,7.15-19.87c-0.87-3.86-2.93-7.13-5.83-9.46c0.35-3.6-0.32-7.21-1.99-10.32c-2.52-4.69-7.1-7.85-12.56-8.66
		l-0.17-0.03l-51-7.58c-0.37-0.05-0.7-0.15-1-0.28l-11.48-33.71c-0.62-1.81-1.49-3.45-2.62-4.92l-3.56-10.45
		C328.41,248.7,321.94,244.18,314.33,244.18L314.33,244.18z"/>
</g>
<g>
	<path class="st2" d="M313.52,252.39c1.14-0.22,2.83-0.4,4.75,0c8.84,1.82,12.91,13.8,18.76,29.97c2.88,7.94,7.47,20.44,13.65,36.47
		c-4.53-1.82-21.28-9.2-31.19-28.18C310.59,273.58,312.64,257.55,313.52,252.39z"/>
	<path class="st2" d="M199.44,326.79c-1.61,2.65-2.34,5.09-2.68,6.98c-2.24,12.39,8.3,22.46,9.67,23.72
		c0.53-3.82,0.91-10.15-1.06-17.54C203.82,334.12,201.37,329.68,199.44,326.79z"/>
	<path class="st2" d="M331.43,274.41l16.14,47.41c1.22,3.58,4.25,6.06,8.11,6.63l51.15,7.6c9.72,1.44,11.82,13.66,3.56,20.68
		l-43.5,36.9c-3.28,2.79-5.2,6.8-5.13,10.73l0.97,52.11c0.18,9.9-11.37,17.45-19.54,12.78l-43.03-24.6c-3.25-1.86-7.47-1.86-11.28,0
		l-50.56,24.6c-9.61,4.68-18.85-2.88-15.63-12.78l16.91-52.11c1.28-3.93,0.59-7.94-1.84-10.73l-32.21-36.9
		c-6.12-7.01-0.28-19.23,9.88-20.68l53.48-7.6c4.04-0.57,7.83-3.05,10.14-6.63l30.65-47.41C315.52,265.4,328.37,265.4,331.43,274.41
		z"/>
	
		<linearGradient id="SVGID_00000095318366146576044490000001007485911057702828_" gradientUnits="userSpaceOnUse" x1="303.1081" y1="254.6603" x2="303.1081" y2="457.1623">
		<stop  offset="0" style="stop-color:#FAC624"/>
		<stop  offset="1" style="stop-color:#FAA731"/>
	</linearGradient>
	<path style="fill:url(#SVGID_00000095318366146576044490000001007485911057702828_);" d="M404.22,341.36l-18.58,15.77l-24.92,21.13
		c-1.12,0.94-2.09,2.05-2.86,3.22c-1.51,2.29-2.32,4.9-2.28,7.5l0.97,52.12c0.17,9.89-11.37,17.45-19.55,12.78l-43.02-24.6
		c-3.25-1.86-7.47-1.86-11.28,0l-50.55,24.6c-9.62,4.67-18.86-2.89-15.64-12.78l11.63-35.87l4.16-12.84l1.1-3.41
		c1.28-3.93,0.59-7.93-1.84-10.72l-9.12-10.46l-23.08-26.44c-6.14-7.02-0.29-19.23,9.88-20.68l53.48-7.6
		c4.03-0.57,7.83-3.05,10.14-6.63l30.65-47.4c5.83-9.02,18.67-9.02,21.74,0l16.14,47.4c1.22,3.58,4.25,6.06,8.11,6.63l50.97,7.57
		l0.19,0.03C410.38,322.12,412.49,334.34,404.22,341.36z"/>
	<path class="st6" d="M308.77,267.49c-3.37-1.65-12.57,9.28-17.06,19.49c-0.49,1.12-5.43,12.52-2.44,14.62
		c2.29,1.61,8.47-2.76,12.18-6.82C310.33,285.07,312.29,269.22,308.77,267.49z"/>
	<path class="st6" d="M348.24,439.52c-2.16,0.94-5.62-1.9-7.31-4.39c-3.46-5.09-2.46-12.97,0.49-14.13c2.09-0.82,5.02,1.8,6.34,3.41
		C351.9,429.49,351.25,438.21,348.24,439.52z"/>
</g>
</svg>
