<?xml version="1.0" encoding="UTF-8" standalone="no"?>
<svg
   xmlns:dc="http://purl.org/dc/elements/1.1/"
   xmlns:cc="http://creativecommons.org/ns#"
   xmlns:rdf="http://www.w3.org/1999/02/22-rdf-syntax-ns#"
   xmlns:svg="http://www.w3.org/2000/svg"
   xmlns="http://www.w3.org/2000/svg"
   viewBox="0 0 2560 1440"
   height="1440"
   width="2560"
   xml:space="preserve"
   id="svg2"
   version="1.1"><metadata
     id="metadata8"><rdf:RDF><cc:Work
         rdf:about=""><dc:format>image/svg+xml</dc:format><dc:type
           rdf:resource="http://purl.org/dc/dcmitype/StillImage" /></cc:Work></rdf:RDF></metadata><defs
     id="defs6"><clipPath
       id="clipPath22"
       clipPathUnits="userSpaceOnUse"><path
         id="path20"
         d="M 0,1080 H 1920 V 0 H 0 Z" /></clipPath></defs><g
     transform="matrix(1.3333333,0,0,-1.3333333,0,1440)"
     id="g10"><g
       transform="translate(980.0381,676.3115)"
       id="g12"><path
         id="path14"
         style="fill:#3b3535;fill-opacity:1;fill-rule:nonzero;stroke:none"
         d="m 0,0 h 35.703 v -107.495 h 55.283 v -26.49 H 0 Z" /></g><g
       id="g16"><g
         clip-path="url(#clipPath22)"
         id="g18"><g
           transform="translate(1148.9629,566.5132)"
           id="g24"><path
             id="path26"
             style="fill:#3b3535;fill-opacity:1;fill-rule:nonzero;stroke:none"
             d="M 0,0 C 21.69,0 30.329,20.731 30.329,42.806 30.329,66.033 21.69,85.612 0,85.612 -21.691,85.612 -30.329,66.033 -30.329,42.806 -30.329,20.731 -21.691,0 0,0 m 0,112.102 c 44.149,0 67.185,-26.298 67.185,-69.296 C 67.185,0.192 43.766,-26.49 0,-26.49 c -43.766,0 -67.185,26.682 -67.185,69.296 0,42.998 23.035,69.296 67.185,69.296" /></g><g
           transform="translate(1226.3271,573.2314)"
           id="g28"><path
             id="path30"
             style="fill:#3b3535;fill-opacity:1;fill-rule:nonzero;stroke:none"
             d="m 0,0 c 4.415,-2.111 9.981,-3.263 16.124,-3.263 10.558,0 18.236,7.486 18.236,29.369 V 103.08 H 70.063 V 15.356 c 0,-28.793 -11.709,-48.564 -47.988,-48.564 -7.87,0 -15.932,2.111 -22.075,3.647 z" /></g><g
           transform="translate(1383.1553,648.6699)"
           id="g32"><path
             id="path34"
             style="fill:#3b3535;fill-opacity:1;fill-rule:nonzero;stroke:none"
             d="M 0,0 H -0.384 L -17.66,-52.404 h 33.592 z m -21.883,27.642 h 43.766 l 51.636,-133.985 h -39.16 l -9.981,28.601 h -50.292 l -10.558,-28.601 h -36.28 z" /></g><g
           transform="translate(1054.1572,359.6924)"
           id="g36"><path
             id="path38"
             style="fill:#3b3535;fill-opacity:1;fill-rule:nonzero;stroke:none"
             d="M 0,0 H -23.995 L -74.479,133.985 H -52.98 L -11.71,16.893 h 0.384 l 42.423,117.092 h 20.155 z" /></g><path
           id="path40"
           style="fill:#3b3535;fill-opacity:1;fill-rule:nonzero;stroke:none"
           d="m 1123.648,493.678 h 19.195 V 359.693 h -19.195 z" /><g
           transform="translate(1195.0576,436.0908)"
           id="g42"><path
             id="path44"
             style="fill:#3b3535;fill-opacity:1;fill-rule:nonzero;stroke:none"
             d="m 0,0 h 16.316 c 18.236,0 28.986,8.063 28.986,20.923 0,12.094 -9.214,19.771 -26.874,19.771 H 0 Z m -19.195,57.587 h 32.824 c 26.49,0 52.019,-4.224 52.019,-36.28 0,-16.317 -12.092,-27.833 -27.641,-30.521 v -0.384 c 5.951,-2.303 8.83,-5.182 13.054,-13.437 L 76.398,-76.398 H 54.516 l -20.539,46.453 c -5.952,13.052 -12.286,13.052 -22.459,13.052 H 0 v -59.505 h -19.195 z" /></g><g
           transform="translate(1317.5303,476.7852)"
           id="g46"><path
             id="path48"
             style="fill:#3b3535;fill-opacity:1;fill-rule:nonzero;stroke:none"
             d="M 0,0 H -41.654 V 16.893 H 60.851 V 0 H 19.195 V -117.093 H 0 Z" /></g><g
           transform="translate(1501.8115,415.168)"
           id="g50"><path
             id="path52"
             style="fill:#3b3535;fill-opacity:1;fill-rule:nonzero;stroke:none"
             d="m 0,0 c 0,-37.624 -19.003,-57.779 -52.02,-57.779 -33.016,0 -52.019,20.155 -52.019,57.779 v 78.51 h 19.195 V 2.495 c 0,-25.723 8.063,-43.382 32.824,-43.382 24.763,0 32.825,17.659 32.825,43.382 V 78.51 H 0 Z" /></g><g
           transform="translate(1588.0029,475.6338)"
           id="g54"><path
             id="path56"
             style="fill:#3b3535;fill-opacity:1;fill-rule:nonzero;stroke:none"
             d="M 0,0 -26.682,-66.417 H 26.682 Z M -9.406,18.044 H 10.749 L 67.376,-115.941 H 46.453 l -13.629,33.784 h -65.648 l -13.629,-33.784 h -20.155 z" /></g><g
           transform="translate(1674.5771,493.6777)"
           id="g58"><path
             id="path60"
             style="fill:#3b3535;fill-opacity:1;fill-rule:nonzero;stroke:none"
             d="m 0,0 h 19.195 v -117.093 h 56.051 v -16.892 H 0 Z" /></g><g
           transform="translate(448.4736,516.6289)"
           id="g62"><path
             id="path64"
             style="fill:#ab2723;fill-opacity:1;fill-rule:nonzero;stroke:none"
             d="m 0,0 c -10.529,0 -19.065,-8.536 -19.065,-19.065 0,-10.533 8.536,-19.066 19.065,-19.066 10.532,0 19.065,8.533 19.065,19.066 C 19.065,-8.536 10.532,0 0,0" /></g><g
           transform="translate(514.1489,560.1846)"
           id="g66"><path
             id="path68"
             style="fill:#ab2723;fill-opacity:1;fill-rule:nonzero;stroke:none"
             d="m 0,0 c -4.305,4.4 -10.294,7.149 -16.898,7.149 h -51.264 c -13.023,0 -18.553,-9.342 -12.284,-20.759 l 36.957,-28.707 29.51,-37.76 c 11.418,-6.271 20.76,-0.742 20.76,12.288 l 0.004,51.252 C 6.785,-10.117 4.187,-4.278 0,0" /></g><g
           transform="translate(611.415,636.7959)"
           id="g70"><path
             id="path72"
             style="fill:#728428;fill-opacity:1;fill-rule:nonzero;stroke:none"
             d="m 0,0 c 10.529,0 19.065,8.536 19.065,19.065 0,10.529 -8.536,19.069 -19.065,19.069 -10.529,0 -19.062,-8.54 -19.062,-19.069 C -19.062,8.536 -10.529,0 0,0" /></g><g
           transform="translate(588.9248,635.1294)"
           id="g74"><path
             id="path76"
             style="fill:#728428;fill-opacity:1;fill-rule:nonzero;stroke:none"
             d="m 0,0 -29.207,37.453 c -11.417,6.273 -20.759,0.739 -20.759,-12.284 l 0.003,-51.26 c 0,-6.648 2.785,-12.667 7.233,-16.978 4.27,-4.139 10.07,-6.705 16.45,-6.705 l 51.271,-0.003 c 13.026,0 18.553,9.339 12.28,20.759 z" /></g><g
           transform="translate(610.9668,516.6289)"
           id="g78"><path
             id="path80"
             style="fill:#ed7004;fill-opacity:1;fill-rule:nonzero;stroke:none"
             d="m 0,0 c -10.529,0 -19.065,-8.533 -19.065,-19.065 0,-10.53 8.536,-19.066 19.065,-19.066 10.529,0 19.065,8.536 19.065,19.066 C 19.065,-8.533 10.529,0 0,0" /></g><g
           transform="translate(615.6099,567.334)"
           id="g82"><path
             id="path84"
             style="fill:#ed7004;fill-opacity:1;fill-rule:nonzero;stroke:none"
             d="m 0,0 h -51.246 c -6.705,0 -12.769,-2.839 -17.087,-7.356 -4.073,-4.26 -6.596,-10.011 -6.596,-16.331 v -51.251 c 0,-13.024 9.339,-18.559 20.76,-12.289 l 28.556,36.813 37.897,29.655 C 18.554,-9.342 13.026,0 0,0" /></g><g
           transform="translate(450.6479,636.7959)"
           id="g86"><path
             id="path88"
             style="fill:#025f9f;fill-opacity:1;fill-rule:nonzero;stroke:none"
             d="m 0,0 c 10.529,0 19.065,8.533 19.065,19.065 0,10.529 -8.536,19.066 -19.065,19.066 -10.529,0 -19.065,-8.537 -19.065,-19.066 C -19.065,8.533 -10.529,0 0,0" /></g><g
           transform="translate(520.9302,660.2983)"
           id="g90"><path
             id="path92"
             style="fill:#025f9f;fill-opacity:1;fill-rule:nonzero;stroke:none"
             d="M 0,0 C 0,13.029 -9.342,18.557 -20.756,12.284 L -51.03,-26.242 -87.223,-54.187 c -6.27,-11.424 -0.743,-20.767 12.284,-20.759 h 51.256 c 6.22,0.001 11.883,2.449 16.122,6.406 4.637,4.331 7.564,10.471 7.564,17.28 z" /></g><g
           transform="translate(376.6851,638.2998)"
           id="g94"><path
             id="path96"
             style="fill:#3b3535;fill-opacity:1;fill-rule:nonzero;stroke:none"
             d="m 0,0 h -89.971 c -8.465,0 -15.39,-6.926 -15.39,-15.39 0,-8.464 6.925,-15.39 15.39,-15.39 H 0 c 8.464,0 15.39,6.926 15.39,15.39 C 15.39,-6.926 8.464,0 0,0" /></g><g
           transform="translate(376.6851,586.2109)"
           id="g98"><path
             id="path100"
             style="fill:#3b3535;fill-opacity:1;fill-rule:nonzero;stroke:none"
             d="m 0,0 h -61.559 c -8.464,0 -15.39,-6.925 -15.39,-15.39 0,-8.464 6.926,-15.39 15.39,-15.39 H 0 c 8.464,0 15.39,6.926 15.39,15.39 C 15.39,-6.925 8.464,0 0,0" /></g><g
           transform="translate(376.6851,536.4902)"
           id="g102"><path
             id="path104"
             style="fill:#3b3535;fill-opacity:1;fill-rule:nonzero;stroke:none"
             d="m 0,0 h -37.882 c -8.465,0 -15.39,-6.926 -15.39,-15.39 0,-8.464 6.925,-15.39 15.39,-15.39 H 0 c 8.464,0 15.39,6.926 15.39,15.39 C 15.39,-6.926 8.464,0 0,0" /></g><g
           transform="translate(781.0977,388.3721)"
           id="g106"><path
             id="path108"
             style="fill:#3b3535;fill-opacity:1;fill-rule:nonzero;stroke:none"
             d="m 0,0 c -8.5,0 -15.39,6.89 -15.39,15.39 0,8.499 6.89,15.389 15.39,15.389 8.5,0 15.39,-6.89 15.39,-15.389 C 15.39,6.89 8.5,0 0,0 m 0,56.823 c -22.883,0 -41.434,-18.55 -41.434,-41.433 0,-22.884 18.551,-41.435 41.434,-41.435 22.883,0 41.434,18.551 41.434,41.435 0,22.883 -18.551,41.433 -41.434,41.433" /></g><g
           transform="translate(836.9526,526.9961)"
           id="g110"><path
             id="path112"
             style="fill:#3b3535;fill-opacity:1;fill-rule:nonzero;stroke:none"
             d="m 0,0 c 0,-4.082 -3.31,-7.392 -7.392,-7.392 h -113.824 c -4.082,0 -7.391,3.31 -7.391,7.392 v 109.882 c 0,4.082 3.309,7.391 7.391,7.391 h 60.283 c 2.231,0 4.343,-1.007 5.746,-2.742 L -1.645,48.352 C -0.581,47.036 0,45.395 0,43.703 Z m 44.498,40.793 -85.756,105.999 c -2.248,2.778 -5.63,4.392 -9.203,4.392 h -96.555 c -6.538,0 -11.838,-5.3 -11.838,-11.838 V -78.476 H -288.46 c 15.578,-8.123 26.433,-24.058 27.343,-42.618 h 154.411 c 1.124,27.12 23.456,48.764 50.851,48.764 27.396,0 49.727,-21.644 50.851,-48.764 h 42.779 c 5.147,0 9.358,4.211 9.358,9.359 v 11.157 12.745 121.18 c 0,2.71 -0.93,5.339 -2.635,7.446" /></g><g
           transform="translate(501.498,448.5205)"
           id="g114"><path
             id="path116"
             style="fill:#3b3535;fill-opacity:1;fill-rule:nonzero;stroke:none"
             d="m 0,0 h -86.515 c -5.147,0 -9.358,-4.211 -9.358,-9.357 V -33.26 c 0,-5.147 4.211,-9.358 9.358,-9.358 h 59.171 C -26.433,-24.059 -15.578,-8.123 0,0" /></g><g
           transform="translate(524.9951,387.9775)"
           id="g118"><path
             id="path120"
             style="fill:#3b3535;fill-opacity:1;fill-rule:nonzero;stroke:none"
             d="m 0,0 c -8.5,0 -15.39,6.89 -15.39,15.39 0,8.499 6.89,15.389 15.39,15.389 8.5,0 15.39,-6.89 15.39,-15.389 C 15.39,6.89 8.5,0 0,0 m 0,56.823 c -22.883,0 -41.434,-18.551 -41.434,-41.433 0,-22.884 18.551,-41.435 41.434,-41.435 22.883,0 41.434,18.551 41.434,41.435 0,22.882 -18.551,41.433 -41.434,41.433" /></g><g
           transform="translate(931.7783,481.3516)"
           id="g122"><path
             id="path124"
             style="fill:none;stroke:#006aa6;stroke-width:1;stroke-linecap:butt;stroke-linejoin:miter;stroke-miterlimit:10;stroke-dasharray:none;stroke-opacity:1"
             d="m 0,0 c -9.784,0 -17.715,7.931 -17.715,17.714 0,9.784 7.931,17.715 17.715,17.715 9.783,0 17.714,-7.931 17.714,-17.715 C 17.714,7.931 9.783,0 0,0 Z m 0,65.407 c -26.34,0 -47.693,-21.352 -47.693,-47.693 0,-26.34 21.353,-47.693 47.693,-47.693 26.34,0 47.692,21.353 47.692,47.693 C 47.692,44.055 26.34,65.407 0,65.407 Z" /></g><g
           transform="translate(884.5352,703.2163)"
           id="g126"><path
             id="path128"
             style="fill:none;stroke:#006aa6;stroke-width:1;stroke-linecap:butt;stroke-linejoin:miter;stroke-miterlimit:10;stroke-dasharray:none;stroke-opacity:1"
             d="M 0,0 V 25.731 H 94.546 V 0" /></g><g
           transform="translate(930.7778,728.9473)"
           id="g130"><path
             id="path132"
             style="fill:none;stroke:#006aa6;stroke-width:1;stroke-linecap:butt;stroke-linejoin:miter;stroke-miterlimit:10;stroke-dasharray:none;stroke-opacity:1"
             d="M 0,0 0.432,14.361" /></g><g
           transform="translate(275.3286,361.4189)"
           id="g134"><path
             id="path136"
             style="fill:none;stroke:#006aa6;stroke-width:1;stroke-linecap:butt;stroke-linejoin:miter;stroke-miterlimit:10;stroke-dasharray:none;stroke-opacity:1"
             d="M 0,0 H -86.662 V 318.432 H 0" /></g><g
           transform="translate(188.6665,517.165)"
           id="g138"><path
             id="path140"
             style="fill:none;stroke:#006aa6;stroke-width:1;stroke-linecap:butt;stroke-linejoin:miter;stroke-miterlimit:10;stroke-dasharray:none;stroke-opacity:1"
             d="M 0,0 -48.369,1.454" /></g></g></g><text
       id="text144"
       style="font-variant:normal;font-weight:normal;font-stretch:normal;font-size:24px;font-family:'Myriad Pro';-inkscape-font-specification:MyriadPro-Regular;writing-mode:lr-tb;fill:#006aa6;fill-opacity:1;fill-rule:nonzero;stroke:none"
       transform="matrix(1,0,0,-1,747.6875,774.0239)"><tspan
         id="tspan142"
         y="0"
         x="0 15.984 21.6 31.104 39.048 50.616001 63.936001 74.688004 80.304001 91.872002 96.959999 108.984 122.208 130.15199 137.75999 149.784 154.87199 168.048 173.136 182.64 188.256 201.5256 214.8456 228.02161 233.1096 245.13361 250.2216 261.78961 266.87759 274.82159 280.43759 294.0936 307.26959 320.5416 328.26959 339.83759 352.38959">Distância entre o signo e a tipografa</tspan></text>
</g></svg>