<?xml version="1.0" encoding="UTF-8" standalone="no"?>
<svg
   xmlns:dc="http://purl.org/dc/elements/1.1/"
   xmlns:cc="http://creativecommons.org/ns#"
   xmlns:rdf="http://www.w3.org/1999/02/22-rdf-syntax-ns#"
   xmlns:svg="http://www.w3.org/2000/svg"
   xmlns="http://www.w3.org/2000/svg"
   viewBox="0 0 858.35065 779.96002"
   height="779.96002"
   width="858.35065"
   xml:space="preserve"
   id="svg2"
   version="1.1"><metadata
     id="metadata8"><rdf:RDF><cc:Work
         rdf:about=""><dc:format>image/svg+xml</dc:format><dc:type
           rdf:resource="http://purl.org/dc/dcmitype/StillImage" /></cc:Work></rdf:RDF></metadata><defs
     id="defs6"><clipPath
       id="clipPath18"
       clipPathUnits="userSpaceOnUse"><path
         id="path16"
         d="M 0,584.97 H 643.763 V 0 H 0 Z" /></clipPath><linearGradient
       id="linearGradient92"
       spreadMethod="pad"
       gradientTransform="matrix(-42.896744,33.785934,33.785934,42.896744,300.05707,361.7626)"
       gradientUnits="userSpaceOnUse"
       y2="0"
       x2="1"
       y1="0"
       x1="0"><stop
         id="stop88"
         offset="0"
         style="stop-opacity:1;stop-color:#c93f2b" /><stop
         id="stop90"
         offset="1"
         style="stop-opacity:1;stop-color:#ab2723" /></linearGradient><clipPath
       id="clipPath102"
       clipPathUnits="userSpaceOnUse"><path
         id="path100"
         d="M 0,584.97 H 643.763 V 0 H 0 Z" /></clipPath><linearGradient
       id="linearGradient130"
       spreadMethod="pad"
       gradientTransform="matrix(56.316448,-56.316448,-56.316448,-56.316448,342.79642,450.42856)"
       gradientUnits="userSpaceOnUse"
       y2="0"
       x2="1"
       y1="0"
       x1="0"><stop
         id="stop124"
         offset="0"
         style="stop-opacity:1;stop-color:#9cb71e" /><stop
         id="stop126"
         offset="0.66274762"
         style="stop-opacity:1;stop-color:#728529" /><stop
         id="stop128"
         offset="1"
         style="stop-opacity:1;stop-color:#728529" /></linearGradient><clipPath
       id="clipPath140"
       clipPathUnits="userSpaceOnUse"><path
         id="path138"
         d="M 0,584.97 H 643.763 V 0 H 0 Z" /></clipPath><linearGradient
       id="linearGradient166"
       spreadMethod="pad"
       gradientTransform="matrix(55.459812,66.757179,66.757179,-55.459812,309.19675,303.21359)"
       gradientUnits="userSpaceOnUse"
       y2="0"
       x2="1"
       y1="0"
       x1="0"><stop
         id="stop162"
         offset="0"
         style="stop-opacity:1;stop-color:#ed7004" /><stop
         id="stop164"
         offset="1"
         style="stop-opacity:1;stop-color:#f59a2d" /></linearGradient><clipPath
       id="clipPath176"
       clipPathUnits="userSpaceOnUse"><path
         id="path174"
         d="M 0,584.97 H 643.763 V 0 H 0 Z" /></clipPath><linearGradient
       id="linearGradient198"
       spreadMethod="pad"
       gradientTransform="matrix(27.216391,36.973209,36.973209,-27.216391,297.07986,432.00464)"
       gradientUnits="userSpaceOnUse"
       y2="0"
       x2="1"
       y1="0"
       x1="0"><stop
         id="stop194"
         offset="0"
         style="stop-opacity:1;stop-color:#0bbbef" /><stop
         id="stop196"
         offset="1"
         style="stop-opacity:1;stop-color:#005f9f" /></linearGradient><clipPath
       id="clipPath208"
       clipPathUnits="userSpaceOnUse"><path
         id="path206"
         d="M 0,584.97 H 643.763 V 0 H 0 Z" /></clipPath></defs><g
     transform="matrix(1.3333333,0,0,-1.3333333,0,779.96)"
     id="g10"><g
       id="g12"><g
         clip-path="url(#clipPath18)"
         id="g14"><g
           transform="translate(155.874,221.9)"
           id="g20"><path
             id="path22"
             style="fill:#3c3535;fill-opacity:1;fill-rule:nonzero;stroke:none"
             d="m 0,0 c 2.225,-1.052 4.821,-1.576 7.788,-1.576 2.719,0 4.868,1.112 6.444,3.337 1.576,2.226 2.364,5.841 2.364,10.848 V 49.787 H 33.84 V 7.417 c 0,-3.585 -0.402,-6.814 -1.205,-9.688 -0.804,-2.875 -2.102,-5.331 -3.894,-7.371 -1.793,-2.04 -4.188,-3.616 -7.185,-4.728 -2.999,-1.113 -6.629,-1.669 -10.894,-1.669 -1.608,0 -3.184,0.139 -4.728,0.417 -1.546,0.278 -3.4,0.695 -5.563,1.252 L 0,-14.278 Z" /></g><g
           transform="translate(255.7245,231.5422)"
           id="g24"><path
             id="path26"
             style="fill:#3c3535;fill-opacity:1;fill-rule:nonzero;stroke:none"
             d="m 0,0 c 0,-8.53 -2.535,-14.943 -7.602,-19.238 -5.069,-4.297 -11.992,-6.443 -20.768,-6.443 -8.778,0 -15.701,2.146 -20.768,6.443 C -54.207,-14.943 -56.74,-8.53 -56.74,0 v 40.145 h 17.244 V 2.874 c 0,-2.287 0.17,-4.357 0.51,-6.212 0.339,-1.854 0.942,-3.508 1.808,-4.96 0.865,-1.453 2.024,-2.581 3.477,-3.384 1.451,-0.804 3.229,-1.205 5.331,-1.205 2.163,0 3.97,0.401 5.423,1.205 1.452,0.803 2.597,1.931 3.431,3.384 0.834,1.452 1.421,3.106 1.761,4.96 0.339,1.855 0.51,3.925 0.51,6.212 V 40.145 H 0 Z" /></g><g
           transform="translate(265.2722,271.6867)"
           id="g28"><path
             id="path30"
             style="fill:#3c3535;fill-opacity:1;fill-rule:nonzero;stroke:none"
             d="m 0,0 h 21.973 l 21.88,-43.946 h 0.186 L 43.76,0 H 59.522 V -64.714 H 38.105 l -22.622,44.225 h -0.185 l 0.556,-44.225 H 0 Z" /></g><g
           transform="translate(346.396,258.8925)"
           id="g32"><path
             id="path34"
             style="fill:#3c3535;fill-opacity:1;fill-rule:nonzero;stroke:none"
             d="M 0,0 H -15.946 V 12.794 H 33.191 V 0 H 17.245 V -51.919 H 0 Z" /></g><g
           transform="translate(401.1894,231.4494)"
           id="g36"><path
             id="path38"
             style="fill:#3c3535;fill-opacity:1;fill-rule:nonzero;stroke:none"
             d="m 0,0 c 0.556,-2.473 1.437,-4.668 2.642,-6.583 1.206,-1.916 2.735,-3.43 4.59,-4.543 1.854,-1.112 4.047,-1.668 6.582,-1.668 2.534,0 4.743,0.556 6.629,1.668 1.885,1.113 3.415,2.627 4.59,4.543 1.173,1.915 2.039,4.11 2.596,6.583 0.556,2.471 0.834,5.099 0.834,7.881 0,2.904 -0.278,5.593 -0.834,8.066 -0.557,2.471 -1.423,4.666 -2.596,6.582 -1.175,1.915 -2.705,3.399 -4.59,4.45 -1.886,1.051 -4.095,1.577 -6.629,1.577 -2.535,0 -4.728,-0.526 -6.582,-1.577 C 5.377,25.928 3.848,24.444 2.642,22.529 1.437,20.613 0.556,18.418 0,15.947 -0.556,13.474 -0.834,10.785 -0.834,7.881 -0.834,5.099 -0.556,2.471 0,0 m -10.291,32.496 c 5.563,5.902 13.597,8.854 24.105,8.854 10.507,0 18.543,-2.952 24.106,-8.854 5.562,-5.903 8.344,-14.108 8.344,-24.615 0,-10.447 -2.797,-18.636 -8.391,-24.569 -5.594,-5.934 -13.614,-8.901 -24.059,-8.901 -10.446,0 -18.465,2.967 -24.059,8.901 -5.594,5.933 -8.39,14.122 -8.39,24.569 0,10.507 2.781,18.712 8.344,24.615" /></g><g
           transform="translate(455.4263,222.9199)"
           id="g40"><path
             id="path42"
             style="fill:#3c3535;fill-opacity:1;fill-rule:nonzero;stroke:none"
             d="m 0,0 c 2.411,-1.298 5.13,-2.334 8.159,-3.106 3.027,-0.773 6.242,-1.159 9.642,-1.159 3.213,0 5.794,0.464 7.741,1.391 1.948,0.927 2.921,2.564 2.921,4.914 0,2.225 -0.927,3.894 -2.782,5.006 -1.854,1.113 -4.76,2.286 -8.714,3.523 -2.967,0.865 -5.44,1.699 -7.418,2.504 -1.978,0.802 -3.863,1.9 -5.655,3.291 -1.794,1.391 -3.245,3.198 -4.358,5.423 -1.112,2.226 -1.669,4.975 -1.669,8.252 0,3.708 0.819,6.861 2.458,9.457 1.636,2.596 3.815,4.65 6.536,6.165 2.719,1.514 5.716,2.596 8.993,3.245 3.275,0.649 6.675,0.974 10.198,0.974 3.09,0 6.087,-0.218 8.993,-0.65 2.905,-0.433 5.471,-1.019 7.696,-1.761 L 41.628,34.118 c -4.327,1.978 -9.118,2.967 -14.37,2.967 -1.361,0 -2.675,-0.062 -3.941,-0.185 -1.267,-0.125 -2.488,-0.387 -3.662,-0.788 -1.175,-0.403 -2.132,-1.006 -2.874,-1.808 -0.742,-0.804 -1.112,-1.886 -1.112,-3.245 0,-1.855 0.864,-3.261 2.595,-4.219 1.73,-0.959 4.481,-1.963 8.252,-3.013 2.967,-0.866 5.47,-1.669 7.51,-2.41 2.039,-0.742 4.017,-1.824 5.933,-3.245 1.915,-1.423 3.445,-3.277 4.59,-5.563 1.143,-2.287 1.715,-5.069 1.715,-8.344 0,-4.019 -0.774,-7.417 -2.318,-10.199 -1.546,-2.781 -3.648,-4.992 -6.305,-6.629 -2.658,-1.638 -5.671,-2.797 -9.039,-3.476 -3.37,-0.68 -6.969,-1.02 -10.801,-1.02 -3.152,0 -6.46,0.248 -9.92,0.741 -3.463,0.495 -6.583,1.174 -9.365,2.04 z" /></g><g
           transform="translate(461.1108,163.6858)"
           id="g44"><path
             id="path46"
             style="fill:#3c3535;fill-opacity:1;fill-rule:nonzero;stroke:none"
             d="M 0,0 H 24.893 V 24.895 H 41.405 V 0 H 66.301 V -16.515 H 41.405 V -41.406 H 24.893 v 24.891 H 0 Z" /></g><g
           transform="translate(167.052,173.5488)"
           id="g48"><path
             id="path50"
             style="fill:#3c3535;fill-opacity:1;fill-rule:nonzero;stroke:none"
             d="m 0,0 c -4.265,1.854 -8.654,2.781 -13.165,2.781 -1.237,0 -2.443,-0.155 -3.616,-0.463 -1.175,-0.31 -2.257,-0.804 -3.245,-1.484 -0.99,-0.68 -1.793,-1.608 -2.411,-2.781 -0.618,-1.175 -0.927,-2.596 -0.927,-4.265 0,-2.102 0.865,-3.74 2.596,-4.914 1.73,-1.174 4.45,-2.472 8.159,-3.893 2.719,-1.052 4.99,-2.01 6.814,-2.875 1.823,-0.866 3.57,-2.009 5.238,-3.43 1.669,-1.423 3.014,-3.199 4.034,-5.331 1.02,-2.132 1.53,-4.714 1.53,-7.741 0,-3.4 -0.635,-6.367 -1.901,-8.901 -1.268,-2.535 -3.014,-4.575 -5.239,-6.119 -2.225,-1.546 -4.79,-2.689 -7.695,-3.43 -2.906,-0.742 -6.058,-1.113 -9.456,-1.113 -2.967,0 -5.409,0.155 -7.325,0.464 -1.916,0.31 -4.543,0.865 -7.88,1.669 l -1.391,0.37 1.205,11.682 c 2.286,-1.237 4.682,-2.21 7.185,-2.92 2.504,-0.712 4.991,-1.066 7.464,-1.066 2.842,0 5.47,0.725 7.88,2.178 2.411,1.452 3.616,3.507 3.616,6.166 0,2.41 -0.912,4.264 -2.735,5.562 -1.824,1.298 -4.682,2.689 -8.576,4.173 -2.596,1.05 -4.79,2.007 -6.582,2.874 -1.794,0.864 -3.493,1.993 -5.099,3.384 -1.609,1.39 -2.906,3.12 -3.894,5.192 -0.99,2.07 -1.484,4.557 -1.484,7.463 0,3.461 0.617,6.458 1.854,8.993 1.236,2.534 2.921,4.589 5.053,6.165 2.133,1.577 4.527,2.736 7.185,3.477 2.657,0.742 5.501,1.113 8.53,1.113 5.686,0 10.848,-0.774 15.483,-2.318 z" /></g><g
           transform="translate(193.3822,144.5296)"
           id="g52"><path
             id="path54"
             style="fill:#3c3535;fill-opacity:1;fill-rule:nonzero;stroke:none"
             d="m 0,0 c 0.679,-2.781 1.746,-5.285 3.199,-7.51 1.451,-2.225 3.337,-3.986 5.655,-5.284 2.318,-1.298 5.083,-1.947 8.298,-1.947 3.213,0 5.98,0.649 8.298,1.947 2.318,1.298 4.202,3.059 5.655,5.284 1.452,2.225 2.518,4.729 3.199,7.51 0.679,2.781 1.02,5.686 1.02,8.715 0,2.967 -0.357,5.825 -1.067,8.576 -0.711,2.749 -1.808,5.222 -3.291,7.417 -1.483,2.193 -3.384,3.924 -5.702,5.192 -2.318,1.266 -5.022,1.901 -8.112,1.901 -3.091,0 -5.795,-0.635 -8.113,-1.901 C 6.722,28.632 4.821,26.887 3.338,24.662 1.854,22.437 0.756,19.964 0.047,17.245 -0.665,14.524 -1.02,11.682 -1.02,8.715 -1.02,5.686 -0.681,2.781 0,0 m -6.258,32.959 c 5.531,6.027 13.335,9.04 23.41,9.04 5.006,0 9.487,-0.804 13.443,-2.411 3.955,-1.608 7.278,-3.893 9.967,-6.86 2.689,-2.967 4.743,-6.49 6.165,-10.57 1.421,-4.079 2.133,-8.561 2.133,-13.443 0,-4.946 -0.696,-9.457 -2.086,-13.536 -1.391,-4.079 -3.431,-7.634 -6.119,-10.662 -2.689,-3.029 -6.012,-5.363 -9.967,-7 -3.956,-1.637 -8.469,-2.457 -13.536,-2.457 -10.138,0 -17.956,3.06 -23.456,9.179 -5.502,6.119 -8.252,14.278 -8.252,24.476 0,10.136 2.765,18.218 8.298,24.244" /></g><g
           transform="translate(252.2548,185.416)"
           id="g56"><path
             id="path58"
             style="fill:#3c3535;fill-opacity:1;fill-rule:nonzero;stroke:none"
             d="m 0,0 h 20.768 l 15.39,-49.045 h 0.185 L 51.734,0 H 72.501 V -64.714 H 60.078 v 53.403 H 59.892 L 42.463,-64.714 H 30.039 l -17.43,53.403 -0.185,-0.185 V -64.714 H 0 Z" /></g><g
           transform="translate(349.3239,144.5296)"
           id="g60"><path
             id="path62"
             style="fill:#3c3535;fill-opacity:1;fill-rule:nonzero;stroke:none"
             d="m 0,0 c 0.679,-2.781 1.746,-5.285 3.199,-7.51 1.451,-2.225 3.337,-3.986 5.655,-5.284 2.318,-1.298 5.083,-1.947 8.298,-1.947 3.213,0 5.98,0.649 8.298,1.947 2.318,1.298 4.202,3.059 5.655,5.284 1.452,2.225 2.518,4.729 3.199,7.51 0.679,2.781 1.02,5.686 1.02,8.715 0,2.967 -0.357,5.825 -1.067,8.576 -0.711,2.749 -1.808,5.222 -3.291,7.417 -1.483,2.193 -3.384,3.924 -5.702,5.192 -2.318,1.266 -5.022,1.901 -8.112,1.901 -3.092,0 -5.795,-0.635 -8.113,-1.901 C 6.722,28.632 4.821,26.887 3.338,24.662 1.854,22.437 0.756,19.964 0.047,17.245 -0.665,14.524 -1.02,11.682 -1.02,8.715 -1.02,5.686 -0.681,2.781 0,0 m -6.258,32.959 c 5.531,6.027 13.335,9.04 23.41,9.04 5.006,0 9.487,-0.804 13.443,-2.411 3.955,-1.608 7.278,-3.893 9.967,-6.86 2.689,-2.967 4.743,-6.49 6.165,-10.57 1.421,-4.079 2.133,-8.561 2.133,-13.443 0,-4.946 -0.696,-9.457 -2.086,-13.536 -1.391,-4.079 -3.431,-7.634 -6.119,-10.662 -2.689,-3.029 -6.012,-5.363 -9.967,-7 -3.956,-1.637 -8.469,-2.457 -13.536,-2.457 -10.138,0 -17.956,3.06 -23.456,9.179 -5.502,6.119 -8.252,14.278 -8.252,24.476 0,10.136 2.765,18.218 8.298,24.244" /></g><g
           transform="translate(442.9637,173.5488)"
           id="g64"><path
             id="path66"
             style="fill:#3c3535;fill-opacity:1;fill-rule:nonzero;stroke:none"
             d="m 0,0 c -4.265,1.854 -8.654,2.781 -13.165,2.781 -1.237,0 -2.442,-0.155 -3.616,-0.463 -1.175,-0.31 -2.257,-0.804 -3.245,-1.484 -0.989,-0.68 -1.793,-1.608 -2.41,-2.781 -0.619,-1.175 -0.927,-2.596 -0.927,-4.265 0,-2.102 0.864,-3.74 2.595,-4.914 1.73,-1.174 4.45,-2.472 8.159,-3.893 2.719,-1.052 4.991,-2.01 6.814,-2.875 1.823,-0.866 3.57,-2.009 5.239,-3.43 1.669,-1.423 3.013,-3.199 4.033,-5.331 1.02,-2.132 1.53,-4.714 1.53,-7.741 0,-3.4 -0.635,-6.367 -1.901,-8.901 -1.268,-2.535 -3.013,-4.575 -5.238,-6.119 -2.226,-1.546 -4.791,-2.689 -7.695,-3.43 -2.906,-0.742 -6.059,-1.113 -9.457,-1.113 -2.967,0 -5.409,0.155 -7.325,0.464 -1.916,0.31 -4.543,0.865 -7.88,1.669 l -1.391,0.37 1.206,11.682 c 2.285,-1.237 4.681,-2.21 7.185,-2.92 2.503,-0.712 4.99,-1.066 7.463,-1.066 2.842,0 5.47,0.725 7.881,2.178 2.41,1.452 3.616,3.507 3.616,6.166 0,2.41 -0.913,4.264 -2.735,5.562 -1.825,1.298 -4.683,2.689 -8.577,4.173 -2.595,1.05 -4.79,2.007 -6.582,2.874 -1.793,0.864 -3.493,1.993 -5.099,3.384 -1.608,1.39 -2.906,3.12 -3.894,5.192 -0.99,2.07 -1.484,4.557 -1.484,7.463 0,3.461 0.617,6.458 1.855,8.993 1.235,2.534 2.92,4.589 5.052,6.165 2.133,1.577 4.527,2.736 7.186,3.477 2.656,0.742 5.5,1.113 8.529,1.113 5.686,0 10.848,-0.774 15.483,-2.318 z" /></g><g
           transform="translate(273.8842,330.4811)"
           id="g68"><path
             id="path70"
             style="fill:#ab2723;fill-opacity:1;fill-rule:nonzero;stroke:none"
             d="m 0,0 c 0,-8.964 -7.262,-16.226 -16.226,-16.226 -8.961,0 -16.227,7.262 -16.227,16.226 0,8.961 7.266,16.226 16.227,16.226 C -7.262,16.226 0,8.961 0,0" /></g><g
           transform="translate(319.3286,369.7029)"
           id="g72"><path
             id="path74"
             style="fill:#ab2723;fill-opacity:1;fill-rule:nonzero;stroke:none"
             d="m 0,0 -0.003,-43.621 c 0,-11.089 -7.951,-15.794 -17.669,-10.457 l -25.116,32.137 37.013,36.016 C -2.211,10.434 0,5.464 0,0" /></g></g></g><g
       id="g76"><g
         id="g78"><g
           id="g84"><g
             id="g86"><path
               id="path94"
               style="fill:url(#linearGradient92);stroke:none"
               d="m 255.542,389.863 c -11.084,0 -15.791,-7.952 -10.455,-17.669 v 0 l 31.454,-24.432 37.013,36.016 c -3.664,3.745 -8.761,6.085 -14.382,6.085 v 0 z" /></g></g></g></g><g
       id="g96"><g
         clip-path="url(#clipPath102)"
         id="g98"><g
           transform="translate(381.5798,465.208)"
           id="g104"><path
             id="path106"
             style="fill:#728529;fill-opacity:1;fill-rule:nonzero;stroke:none"
             d="m 0,0 c 0,-8.961 7.262,-16.227 16.223,-16.227 8.961,0 16.227,7.266 16.227,16.227 0,8.961 -7.266,16.229 -16.227,16.229 C 7.262,16.229 0,8.961 0,0" /></g><g
           transform="translate(353.804,479.4387)"
           id="g108"><path
             id="path110"
             style="fill:#728529;fill-opacity:1;fill-rule:nonzero;stroke:none"
             d="m 0,0 c -9.717,5.339 -17.668,0.629 -17.668,-10.454 l 0.003,-43.627 c 0,-5.659 2.37,-10.782 6.155,-14.451 l 36.368,36.656 z" /></g></g></g><g
       id="g112"><g
         id="g114"><g
           id="g120"><g
             id="g122"><path
               id="path132"
               style="fill:url(#linearGradient130);stroke:none"
               d="m 342.294,410.907 c 3.634,-3.523 8.571,-5.707 14.002,-5.707 v 0 l 43.635,-0.003 c 11.087,0 15.792,7.949 10.452,17.669 v 0 l -31.722,24.697 z" /></g></g></g></g><g
       id="g134"><g
         clip-path="url(#clipPath140)"
         id="g136"><g
           transform="translate(412.1818,330.4811)"
           id="g142"><path
             id="path144"
             style="fill:#ed7004;fill-opacity:1;fill-rule:nonzero;stroke:none"
             d="m 0,0 c 0,-8.961 -7.265,-16.226 -16.226,-16.226 -8.961,0 -16.227,7.265 -16.227,16.226 0,8.964 7.266,16.226 16.227,16.226 C -7.265,16.226 0,8.964 0,0" /></g><g
           transform="translate(356.2922,389.8627)"
           id="g146"><path
             id="path148"
             style="fill:#ed7004;fill-opacity:1;fill-rule:nonzero;stroke:none"
             d="M 0,0 H 43.615 C 54.702,0 59.406,-7.951 54.07,-17.668 L 21.816,-42.908 -14.543,-6.261 C -10.867,-2.416 -5.707,0 0,0" /></g></g></g><g
       id="g150"><g
         id="g152"><g
           id="g158"><g
             id="g160"><path
               id="path168"
               style="fill:url(#linearGradient166);stroke:none"
               d="m 336.136,369.703 v -43.62 c 0,-11.084 7.947,-15.795 17.668,-10.458 v 0 l 24.304,31.33 -36.359,36.647 c -3.466,-3.627 -5.613,-8.52 -5.613,-13.899" /></g></g></g></g><g
       id="g170"><g
         clip-path="url(#clipPath176)"
         id="g172"><g
           transform="translate(243.2823,465.208)"
           id="g178"><path
             id="path180"
             style="fill:#005f9f;fill-opacity:1;fill-rule:nonzero;stroke:none"
             d="m 0,0 c 0,-8.964 7.265,-16.227 16.226,-16.227 8.961,0 16.227,7.263 16.227,16.227 0,8.961 -7.266,16.226 -16.227,16.226 C 7.265,16.226 0,8.961 0,0" /></g></g></g><g
       id="g182"><g
         id="g184"><g
           id="g190"><g
             id="g192"><path
               id="path200"
               style="fill:url(#linearGradient198);stroke:none"
               d="m 301.66,479.439 -25.766,-32.789 36.996,-36 c 3.948,3.686 6.439,8.912 6.439,14.707 v 0 l -0.004,43.628 c 0,7.983 -4.121,12.657 -10.054,12.657 v 0 c -2.308,0 -4.89,-0.708 -7.611,-2.203" /></g></g></g></g><g
       id="g202"><g
         clip-path="url(#clipPath208)"
         id="g204"><g
           transform="translate(275.8938,446.6498)"
           id="g210"><path
             id="path212"
             style="fill:#005f9f;fill-opacity:1;fill-rule:nonzero;stroke:none"
             d="m 0,0 -30.804,-23.784 c -5.336,-9.723 -0.632,-17.675 10.455,-17.668 h 43.624 c 5.294,10e-4 10.114,2.084 13.722,5.452 z" /></g></g></g></g></svg>